<?xml version="1.0" ?>
<svg height="32" id="svg4917" version="1.1" width="32" xmlns="http://www.w3.org/2000/svg" xmlns:cc="http://creativecommons.org/ns#"
  xmlns:dc="http://purl.org/dc/elements/1.1/" xmlns:inkscape="http://www.inkscape.org/namespaces/inkscape" xmlns:rdf="http://www.w3.org/1999/02/22-rdf-syntax-ns#"
  xmlns:sodipodi="http://sodipodi.sourceforge.net/DTD/sodipodi-0.dtd" xmlns:svg="http://www.w3.org/2000/svg">
  <defs id="defs4919" />
  <g id="layer1" transform="translate(0,-1020.3622)">
    <path d="m 0.34435923,1027.3654 a 0.50004038,0.50004038 0 0 0 -0.34374338302,0.5 l 0,3.5 0,1 0,0.9999 0,1 0,3.9999 0,1 0,1 0,1 0,3.4999 a 0.50004038,0.50004038 0 0 0 0.49999038302,0.5 l 30.99940377,0 a 0.50004038,0.50004038 0 0 0 0.49999,-0.5 l 0,-16.9997 a 0.50004038,0.50004038 0 0 0 -0.49999,-0.5 l -30.99940377,0 a 0.50004038,0.50004038 0 0 0 -0.156247,0 z m 0.65623727,1 14.4997215,0 0,4.0624 c -1.968129,0.2478 -3.499933,1.904 -3.499933,3.9375 0,2.0338 1.531283,3.7213 3.499933,3.9687 l 0,4.0311 -14.4997215,0 0,-2.9999 5.4998942,0 a 0.50004035,0.50004035 0 0 0 0.4999904,-0.5 l 0,-2.0312 c 1.1363476,-0.2342 1.9999615,-1.2657 1.9999615,-2.4687 0,-1.2029 -0.8636139,-2.2033 -1.9999615,-2.4375 l 0,-2.0624 a 0.50004035,0.50004035 0 0 0 -0.4999904,-0.5 l -5.4998942,0 0,-3 z m 15.4997015,0 14.499721,0 0,3 -5.499894,0 a 0.50004035,0.50004035 0 0 0 -0.156247,0 0.50004035,0.50004035 0 0 0 -0.343743,0.5 l 0,2.0624 c -1.136347,0.2342 -1.999962,1.2346 -1.999962,2.4375 0,1.203 0.863615,2.2345 1.999962,2.4687 l 0,2.0312 a 0.50004035,0.50004035 0 0 0 0.49999,0.5 l 5.499894,0 0,2.9999 -14.499721,0 0,-4.0311 c 1.968651,-0.2474 3.499933,-1.9349 3.499933,-3.9687 0,-2.0335 -1.531803,-3.6897 -3.499933,-3.9375 l 0,-4.0624 z m -15.4997015,4 4.9999038,0 0,1.9062 a 0.50004038,0.50004038 0 0 0 0,0.094 l 0,2 0,1.9999 a 0.50004038,0.50004038 0 0 0 0,0.094 l 0,1.9062 -4.9999038,0 0,-1 2.4999519,0 a 0.50004038,0.50004038 0 0 0 0.4999904,-0.5 l 0,-4.9999 a 0.50004038,0.50004038 0 0 0 -0.4999904,-0.5 l -2.4999519,0 0,-0.9999 z m 24.9995195,0 4.999903,0 0,0.9999 -2.499951,0 a 0.50004038,0.50004038 0 0 0 -0.156247,0 0.50004038,0.50004038 0 0 0 -0.343744,0.5 l 0,4.9999 a 0.50004038,0.50004038 0 0 0 0.499991,0.5 l 2.499951,0 0,1 -4.999903,0 0,-1.9062 a 0.50004038,0.50004038 0 0 0 0,-0.094 l 0,-1.9999 0,-2 a 0.50004038,0.50004038 0 0 0 0,-0.094 l 0,-1.9062 z m -10.593546,1.0624 c 0.03056,-0.01 0.06285,0.01 0.09375,0 l 0,5.8749 c -1.415859,-0.2423 -2.499952,-1.4501 -2.499952,-2.9374 0,-1.4549 1.036346,-2.6588 2.406204,-2.9375 z m 1.093728,0 c 1.415859,0.2423 2.499952,1.4501 2.499952,2.9375 0,1.4873 -1.084093,2.6951 -2.499952,2.9374 l 0,-5.8749 z m -15.4997015,0.9375 1.9999616,0 0,3.9999 -1.9999616,0 0,-3.9999 z m 27.9994615,0 1.999961,0 0,3.9999 -1.999961,0 0,-3.9999 z m -21.9995769,0.7188 c 0.5537939,0.2196 0.9999808,0.6449 0.9999808,1.2812 0,0.6363 -0.4461868,1.0617 -0.9999808,1.2812 l 0,-1.2812 0,-1.2812 z m 17.9996539,0 0,1.2812 0,1.2812 c -0.553794,-0.2195 -0.999981,-0.6449 -0.999981,-1.2812 0,-0.6363 0.446187,-1.0616 0.999981,-1.2812 z"
      id="rect4258" style="font-size:medium;font-style:normal;font-variant:normal;font-weight:normal;font-stretch:normal;text-indent:0;text-align:start;text-decoration:none;line-height:normal;letter-spacing:normal;word-spacing:normal;text-transform:none;direction:ltr;block-progression:tb;writing-mode:lr-tb;text-anchor:start;baseline-shift:baseline;color:#000000;fill:#000000;fill-opacity:1;stroke:none;stroke-width:0;marker:none;visibility:visible;display:inline;overflow:visible;enable-background:accumulate;font-family:Sans;-inkscape-font-specification:Sans"
    />
  </g>
</svg>
