<?xml version="1.0" ?><svg style="enable-background:new 0 0 48 48;" version="1.1" viewBox="0 0 48 48" xml:space="preserve" xmlns="http://www.w3.org/2000/svg" xmlns:xlink="http://www.w3.org/1999/xlink"><style type="text/css">
	.st0{display:none;}
	.st1{fill:none;stroke:#303030;stroke-width:0.7;stroke-linecap:round;stroke-linejoin:round;stroke-miterlimit:10;}
	.st2{fill:#303030;}
</style><g class="st0" id="Padding__x26__Artboard"/><g id="VideoIcons"><g><g><path class="st1" d="M30.57464,25.95474v4.25556c0,1.17925-0.96135,2.12778-2.12778,2.12778H11.2708     c-1.16643,0-2.11496-0.94853-2.11496-2.12778V17.7897c0-1.17925,0.94853-2.12778,2.11496-2.12778h17.17606     c1.16643,0,2.12778,0.94853,2.12778,2.12778v4.2812"/><path class="st1" d="M30.57464,26.07546V22.0709l4.62985-3.53602c0.16327-0.11661,0.28138-0.15711,0.47364-0.15711H38.011     c0.46144,0,0.83316,0.37172,0.83316,0.83317v2.1406v5.30663v2.12778c0,0.46145-0.37172,0.83317-0.83316,0.83317h-2.33287     c-0.19227,0-0.3103-0.03481-0.4999-0.17945l-4.60359-3.48492"/></g><circle class="st1" cx="19.86524" cy="23.99844" r="4.21049"/><circle class="st1" cx="19.86524" cy="23.99844" r="2.40228"/><line class="st1" x1="15.30362" x2="21.07546" y1="17.41522" y2="17.41522"/><line class="st1" x1="23.03044" x2="24.42686" y1="17.41522" y2="17.41522"/></g></g></svg>