<?xml version="1.0" encoding="utf-8"?>
<!-- Generator: Adobe Illustrator 18.1.1, SVG Export Plug-In . SVG Version: 6.00 Build 0)  -->
<svg version="1.1" id="Layer_1" xmlns="http://www.w3.org/2000/svg" xmlns:xlink="http://www.w3.org/1999/xlink" x="0px" y="0px"
	 viewBox="0 0 640 480" enable-background="new 0 0 640 480" xml:space="preserve">
<g>
	<circle fill="#58595B" cx="320" cy="240.6" r="299.1"/>
	<g>
		<path fill="#FFFFFF" d="M320,46.7c-106.9,0-193.8,86.9-193.8,193.8c0,106.9,86.9,193.8,193.8,193.8
			c106.9,0,193.8-86.9,193.8-193.8C513.8,133.7,426.9,46.7,320,46.7z M476.1,189.6l-26.6,61.1l-47.6-6L359.9,169l18.2-43.7l65.4,8.5
			C456.7,153.6,465.2,168.7,476.1,189.6z M326,67c45.1,1.5,85.9,20.4,116,50.1l-0.8,4.3l-67.5-8.7c-13.9-12-27.5-21-47.7-29V67z
			 M349,174.3l42.8,77.2c-10,20.2-20.5,32.8-33.6,51.5h-81.8c-15.2-29.1-17-32.4-32.6-57.4l40.8-70.8
			C305.1,173.2,326.8,171.7,349,174.3z M200.7,114.4C230.5,86.2,270.2,68.5,314,67v16.7c-20.2,7.8-33.6,13.5-52.4,26.3l-60.8,6.8
			V114.4z M196.6,128.2l0.1,1.2l61.5-6.9l16.4,45.6l-42,73l-42.2,2.4l-26.1-56.9C174.2,164.6,183.3,148.2,196.6,128.2z M146.3,240.6
			c0-16.4,2.3-32.3,6.6-47.4h1.2l26.9,58.5l0.5-0.2c-1.5,17.4-1.9,34.1,0,55.3l-17.8,9.5C152.5,293.3,146.3,267.7,146.3,240.6z
			 M270.2,407c-43-12.9-79-42-100.9-80.1l16.9-9.1c13.8,11.3,30.3,21,50.8,30.6l34,58.1L270.2,407z M283,403.1l-33.9-58l24.9-30.1
			h84.1l31.3,36.4c-49.6,56.4-44,50.1-45.8,52.2C320.3,406.4,306.7,404.8,283,403.1z M363.1,408.9l-5.4-2.9l45.5-51.8
			c20.8-11.2,32.1-18.8,47.9-31.5l15.2,11.4C442.8,370.6,406.2,397.8,363.1,408.9z M456.6,311.9c3.2-22.2,3-35.7,2-52.1l27.7-63.4
			h1.7c3.7,14.1,5.7,29,5.7,44.3c0,30.1-7.7,58.5-21.2,83.2L456.6,311.9z"/>
	</g>
</g>
</svg>
