<?xml version="1.0" encoding="utf-8"?>
<!-- Generator: Adobe Illustrator 18.1.1, SVG Export Plug-In . SVG Version: 6.00 Build 0)  -->
<svg version="1.1" id="Layer_1" xmlns="http://www.w3.org/2000/svg" xmlns:xlink="http://www.w3.org/1999/xlink" x="0px" y="0px"
	 viewBox="0 0 640 480" enable-background="new 0 0 640 480" xml:space="preserve">
<g>
	<circle fill="#58595B" cx="319.4" cy="240.4" r="299.1"/>
	<g>
		<path fill="#FFFFFF" d="M481.4,214.6l46.5-24.6l-50.2-29.8l31.2-51h-60.5l-0.8-53.7l-48.1,25.4l-28.4-46.4l-28.1,45.8l-52-30.9
			l0.7,52.8c7.4,0.8,14.7,2,21.8,3.7l-0.3-18l37.1,22l20.7-33.8l20.5,33.5l34.7-18.3l0.6,39.7H470l-22.4,36.7l35.8,21.3l-32.7,17.3
			l19.3,31.5h-20.5c1.9,7.1,3.4,14.4,4.4,21.8h54.9L481.4,214.6z"/>
		<path fill="#FFFFFF" d="M432.4,285.4c0-88.7-72.1-160.8-160.8-160.8c-88.6,0-160.8,72.1-160.8,160.8
			c0,88.6,72.1,160.8,160.8,160.8C360.3,446.1,432.4,374,432.4,285.4z M171.1,193.7l0.1,1l50.2-5.6l13.3,37.2l-34.3,59.5l-34.4,1.9
			l-21.3-46.4C152.8,223.4,160.2,210.1,171.1,193.7z M242.8,231.7c16.7-1.3,34.4-2.6,52.5-0.5l34.9,63c-8.2,16.5-16.7,26.7-27.4,42
			h-66.7c-12.4-23.8-13.9-26.4-26.5-46.8L242.8,231.7z M304.2,227l14.8-35.6l53.3,6.9c10.7,16.1,17.7,28.4,26.6,45.5l-21.7,49.8
			l-38.8-4.9L304.2,227z M234.2,346.1h68.6l25.5,29.7c-40.4,46-35.9,40.9-37.3,42.6c-19.1,2.2-30.2,0.9-49.5-0.4l-27.6-47.3
			L234.2,346.1z M306.8,422.6l-4.4-2.3l37.1-42.2c17-9.1,26.2-15.3,39-25.6l12.4,9.3C371.8,391.4,341.9,413.6,306.8,422.6z
			 M408.7,249.3c3,11.5,4.7,23.6,4.7,36.1c0,24.6-6.3,47.7-17.3,67.8l-12.9-9.7c2.6-18.1,2.4-29.1,1.6-42.5l22.6-51.7H408.7z
			 M370.5,188.1l-55-7.1c-11.3-9.8-22.4-17.1-38.9-23.6v-13.6c36.8,1.3,70.1,16.6,94.6,40.8L370.5,188.1z M174.4,182.5
			c24.3-23,56.7-37.4,92.4-38.7v13.6c-16.4,6.4-27.4,11-42.7,21.4l-49.6,5.6V182.5z M130,285.4c0-13.4,1.9-26.4,5.4-38.6h1
			l21.9,47.7l0.4-0.2c-1.2,14.2-1.6,27.8,0,45.1l-14.5,7.8C135.1,328.4,130,307.5,130,285.4z M231.1,421.1
			c-35-10.5-64.4-34.2-82.3-65.3l13.8-7.4c11.2,9.2,24.7,17.2,41.5,25l27.7,47.4L231.1,421.1z"/>
	</g>
</g>
</svg>
