<?xml version="1.0" encoding="utf-8"?>
<!-- Generator: Adobe Illustrator 18.1.1, SVG Export Plug-In . SVG Version: 6.00 Build 0)  -->
<svg version="1.1" id="Layer_1" xmlns="http://www.w3.org/2000/svg" xmlns:xlink="http://www.w3.org/1999/xlink" x="0px" y="0px"
	 viewBox="0 0 640 480" enable-background="new 0 0 640 480" xml:space="preserve">
<g>
	<circle fill="#58595B" cx="319.2" cy="240.6" r="299.1"/>
	<g>
		<g>
			<path fill="#FFFFFF" d="M319.2,101.6c-74.2,0-134.5,60.3-134.5,134.5c0,74.2,60.3,134.5,134.5,134.5
				c74.2,0,134.5-60.3,134.5-134.5C453.6,161.9,393.3,101.6,319.2,101.6z M427.5,200.7L409,243l-33-4.1l-29.1-52.5l12.6-30.3
				l45.4,5.9C414,175.7,419.9,186.2,427.5,200.7z M323.4,115.6c31.3,1.1,59.6,14.1,80.5,34.7l-0.6,3l-46.8-6.1
				c-9.6-8.3-19.1-14.6-33.1-20.1V115.6z M339.3,190.1l29.7,53.6c-6.9,14-14.2,22.7-23.3,35.7H289c-10.5-20.2-11.8-22.5-22.6-39.8
				l28.3-49.1C308.8,189.3,323.9,188.3,339.3,190.1z M236.4,148.5c20.7-19.5,48.2-31.9,78.6-32.9v11.6c-14,5.4-23.3,9.4-36.4,18.2
				l-42.2,4.7V148.5z M233.6,158.1l0.1,0.8l42.7-4.8l11.3,31.6l-29.1,50.7l-29.3,1.7l-18.1-39.5C218,183.3,224.3,172,233.6,158.1z
				 M198.6,236.1c0-11.4,1.6-22.4,4.6-32.9h0.8l18.6,40.6l0.4-0.2c-1.1,12.1-1.3,23.7,0,38.3l-12.4,6.6
				C203,272.7,198.6,254.9,198.6,236.1z M284.6,351.6c-29.8-8.9-54.8-29.1-70-55.6l11.8-6.3c9.6,7.8,21,14.6,35.3,21.2l23.6,40.3
				L284.6,351.6z M293.5,348.9L270,308.6l17.3-20.9h58.4l21.7,25.2c-34.4,39.2-30.6,34.8-31.8,36.2
				C319.4,351.1,309.9,350,293.5,348.9z M349.1,352.8l-3.7-2l31.6-35.9c14.5-7.8,22.3-13,33.2-21.8l10.6,7.9
				C404.4,326.3,378.9,345.2,349.1,352.8z M414,285.5c2.2-15.4,2.1-24.8,1.4-36.2l19.2-44h1.2c2.6,9.8,4,20.1,4,30.7
				c0,20.9-5.3,40.6-14.7,57.7L414,285.5z"/>
		</g>
		<g>
			<path fill="#FFFFFF" d="M319.9,11.9c0.7-1.5,1.9-1.5,2.6,0l3.4,6.9l7.6,1.1c1.6,0.2,2,1.4,0.8,2.5l-5.5,5.4l1.3,7.6
				c0.3,1.6-0.7,2.3-2.1,1.5l-6.8-3.6l-6.8,3.6c-1.4,0.8-2.4,0.1-2.1-1.5l1.3-7.6l-5.5-5.4c-1.2-1.1-0.8-2.3,0.8-2.5l7.6-1.1
				L319.9,11.9z"/>
			<path fill="#FFFFFF" d="M252.1,22.1c0.2-1.6,1.4-2,2.5-0.8l5.4,5.5l7.6-1.3c1.6-0.3,2.3,0.7,1.5,2.1l-3.6,6.8l3.6,6.8
				c0.8,1.4,0.1,2.4-1.5,2.1L260,42l-5.4,5.5c-1.1,1.2-2.2,0.8-2.5-0.8l-1.1-7.6l-6.9-3.4c-1.5-0.7-1.5-1.9,0-2.6l6.9-3.4
				L252.1,22.1z"/>
			<path fill="#FFFFFF" d="M190.8,52.7c-0.3-1.6,0.7-2.3,2.1-1.5l6.8,3.6l6.8-3.6c1.4-0.8,2.4-0.1,2.1,1.5l-1.3,7.6l5.5,5.4
				c1.2,1.1,0.8,2.2-0.8,2.5l-7.6,1.1l-3.4,6.9c-0.7,1.5-1.9,1.5-2.6,0l-3.4-6.9l-7.6-1.1c-1.6-0.2-2-1.4-0.8-2.5l5.5-5.4
				L190.8,52.7z"/>
			<path fill="#FFFFFF" d="M142,100.8c-0.8-1.4-0.1-2.4,1.5-2.1l7.6,1.3l5.4-5.5c1.1-1.2,2.2-0.8,2.5,0.8l1.1,7.6l6.9,3.4
				c1.5,0.7,1.5,1.9,0,2.6l-6.9,3.4L159,120c-0.2,1.6-1.4,2-2.5,0.8l-5.4-5.5l-7.6,1.3c-1.6,0.3-2.3-0.7-1.5-2.1l3.6-6.8L142,100.8z
				"/>
			<path fill="#FFFFFF" d="M110.5,161.7c-1.2-1.1-0.8-2.2,0.8-2.5l7.6-1.1l3.4-6.9c0.7-1.5,1.9-1.5,2.6,0l3.4,6.9l7.6,1.1
				c1.6,0.2,2,1.4,0.8,2.5l-5.5,5.4l1.3,7.6c0.3,1.6-0.7,2.3-2.1,1.5l-6.8-3.6l-6.8,3.6c-1.4,0.8-2.4,0.1-2.1-1.5l1.3-7.6
				L110.5,161.7z"/>
			<path fill="#FFFFFF" d="M527.1,164.8c1.6,0.2,2,1.4,0.8,2.5l-5.5,5.4l1.3,7.6c0.3,1.6-0.7,2.3-2.1,1.5l-6.8-3.6l-6.8,3.6
				c-1.4,0.8-2.4,0.1-2.1-1.5l1.3-7.6l-5.5-5.4c-1.2-1.1-0.8-2.2,0.8-2.5l7.6-1.1l3.4-6.9c0.7-1.5,1.9-1.5,2.6,0l3.4,6.9
				L527.1,164.8z"/>
			<path fill="#FFFFFF" d="M496.4,103.5c1.6-0.3,2.3,0.7,1.5,2.1l-3.6,6.8l3.6,6.8c0.8,1.4,0.1,2.4-1.5,2.1l-7.6-1.3l-5.4,5.5
				c-1.1,1.2-2.2,0.8-2.5-0.8l-1.1-7.6l-6.9-3.4c-1.5-0.7-1.5-1.9,0-2.6l6.9-3.4l1.1-7.6c0.2-1.6,1.3-2,2.5-0.8l5.4,5.5L496.4,103.5
				z"/>
			<path fill="#FFFFFF" d="M448.3,54.6c1.4-0.8,2.4-0.1,2.1,1.5l-1.3,7.6l5.5,5.4c1.2,1.1,0.8,2.2-0.8,2.5l-7.6,1.1l-3.4,6.9
				c-0.7,1.5-1.9,1.5-2.6,0l-3.4-6.9l-7.6-1.1c-1.6-0.2-2-1.3-0.8-2.5l5.5-5.4l-1.3-7.6c-0.3-1.6,0.7-2.3,2.1-1.5l6.8,3.6
				L448.3,54.6z"/>
			<path fill="#FFFFFF" d="M387.5,23.1c1.1-1.2,2.2-0.8,2.5,0.8l1.1,7.6l6.9,3.4c1.5,0.7,1.5,1.9,0,2.6l-6.9,3.4l-1.1,7.6
				c-0.2,1.6-1.3,2-2.5,0.8l-5.4-5.5l-7.6,1.3c-1.6,0.3-2.3-0.7-1.5-2.1l3.6-6.8l-3.6-6.8c-0.8-1.4-0.1-2.4,1.5-2.1l7.6,1.3
				L387.5,23.1z"/>
		</g>
		<g>
			<g>
				<g>
					<path fill="#FFFFFF" d="M367.7,383.6c-0.1-1.1-0.9-2-1.9-2.1c-12.3-1.9-23.8,0.9-32,9c-8.6,8.5-12.1,21.3-10.9,35.3
						c13,2.5,25.2-0.2,33.8-8.7C365,408.9,368.5,396.8,367.7,383.6z"/>
					<path fill="#FFFFFF" d="M322.9,425.5c12.9-2.5,25.1,0.2,33.8,8.7c8.3,8.1,11.8,20.2,11,33.4c-0.1,1.1-0.9,2-1.9,2.1
						c-12.3,1.9-23.7-0.9-32-9C325.1,452.3,321.6,439.5,322.9,425.5z"/>
				</g>
				<g>
					<path fill="#FFFFFF" d="M405.2,370.5c-0.4-1-1.4-1.6-2.5-1.4c-12.2,2-22.3,8.2-27.6,18.4c-5.6,10.8-5,24,0.6,36.9
						c13.1-1.6,23.9-7.9,29.5-18.7C410.4,395.4,410.1,382.9,405.2,370.5z"/>
					<path fill="#FFFFFF" d="M375.6,424.3c11.5-6.4,24-7.6,34.8-2.2c10.4,5.2,17.5,15.5,20.8,28.4c0.3,1-0.2,2.1-1.2,2.6
						c-11.1,5.6-22.8,6.5-33.2,1.3C386,449,378.7,438,375.6,424.3z"/>
				</g>
				<g>
					<path fill="#FFFFFF" d="M436.8,346.5c-0.7-0.8-1.9-1.1-2.8-0.6c-11,5.6-18.7,14.7-20.6,26.1c-2,11.9,2.7,24.3,11.9,34.9
						c11.9-5.6,20.3-14.9,22.2-26.9C449.5,368.6,445.3,356.7,436.8,346.5z"/>
					<path fill="#FFFFFF" d="M425.3,406.8c9-9.6,20.4-14.7,32.4-12.9c11.5,1.7,21.4,9.4,28.5,20.6c0.6,0.9,0.5,2.1-0.3,2.9
						c-8.8,8.8-19.7,13.3-31.2,11.5C442.8,427.1,432.5,418.8,425.3,406.8z"/>
				</g>
				<g>
					<path fill="#FFFFFF" d="M459.5,313.9c-0.9-0.6-2.1-0.4-2.9,0.3c-8.7,8.8-13.2,19.7-11.5,31.1c1.8,12,10.1,22.3,22.1,29.5
						c9.6-9,14.6-20.4,12.8-32.4C478.4,331,470.7,321,459.5,313.9z"/>
					<path fill="#FFFFFF" d="M467.1,374.8c5.6-11.9,14.9-20.3,26.9-22.2c11.4-1.9,23.3,2.3,33.5,10.8c0.8,0.7,1.1,1.9,0.6,2.8
						c-5.7,11.1-14.7,18.7-26.1,20.6C490.1,388.7,477.7,384.1,467.1,374.8z"/>
				</g>
				<g>
					<path fill="#FFFFFF" d="M471,275.9c-1-0.3-2.1,0.2-2.6,1.2c-5.6,11-6.5,22.8-1.3,33.2c5.4,10.8,16.5,18.1,30.2,21.2
						c6.4-11.5,7.6-23.9,2.2-34.8C494.2,286.3,483.8,279.2,471,275.9z"/>
					<path fill="#FFFFFF" d="M497.1,331.4c1.6-13.1,7.9-23.9,18.7-29.5c10.3-5.3,22.8-5,35.2-0.1c1,0.4,1.6,1.4,1.4,2.5
						c-2,12.3-8.2,22.3-18.4,27.6C523.2,337.6,510,337,497.1,331.4z"/>
				</g>
				<g>
					<path fill="#FFFFFF" d="M470.1,236.2c-1.1,0.1-2,0.9-2.1,1.9c-1.9,12.2,0.9,23.7,9,32c8.5,8.6,21.3,12.1,35.2,10.8
						c2.5-12.9-0.2-25.1-8.7-33.8C495.4,238.9,483.4,235.4,470.1,236.2z"/>
					<path fill="#FFFFFF" d="M512.1,281c-2.5-12.9,0.2-25.1,8.7-33.8c8.1-8.3,20.2-11.8,33.4-11c1.1,0.1,2,0.9,2.1,1.9
						c1.9,12.3-0.9,23.7-9,32C538.9,278.8,526.1,282.2,512.1,281z"/>
				</g>
				<path fill="#FFFFFF" d="M513.4,247.4c-10.9-7.4-17.7-17.9-17.8-30c-0.1-12.1,6.5-23.6,17.3-32.6c10.9,7.4,17.7,17.9,17.8,30
					C530.7,226.9,524.1,238.4,513.4,247.4z"/>
			</g>
			<g>
				<g>
					<path fill="#FFFFFF" d="M270.6,383.6c0.1-1.1,0.9-2,1.9-2.1c12.3-1.9,23.8,0.9,32,9c8.6,8.5,12.1,21.3,10.9,35.3
						c-12.9,2.5-25.1-0.2-33.8-8.7C273.3,408.9,269.8,396.8,270.6,383.6z"/>
					<path fill="#FFFFFF" d="M315.4,425.5c-12.9-2.5-25.1,0.2-33.8,8.7c-8.3,8.1-11.8,20.2-11,33.4c0.1,1.1,0.9,2,1.9,2.1
						c12.3,1.9,23.7-0.9,32-9C313.2,452.3,316.7,439.5,315.4,425.5z"/>
				</g>
				<g>
					<path fill="#FFFFFF" d="M233.1,370.5c0.4-1,1.4-1.6,2.5-1.4c12.2,2,22.3,8.2,27.6,18.4c5.6,10.8,5,24-0.6,36.9
						c-13.1-1.6-23.9-7.9-29.5-18.7C227.9,395.4,228.2,382.9,233.1,370.5z"/>
					<path fill="#FFFFFF" d="M262.7,424.3c-11.5-6.4-24-7.6-34.8-2.2c-10.4,5.2-17.5,15.5-20.8,28.4c-0.3,1,0.2,2.1,1.2,2.6
						c11.1,5.6,22.8,6.5,33.2,1.3C252.4,449,259.6,438,262.7,424.3z"/>
				</g>
				<g>
					<path fill="#FFFFFF" d="M201.5,346.5c0.7-0.8,1.9-1.1,2.8-0.6c11,5.6,18.7,14.7,20.6,26.1c2,11.9-2.7,24.3-11.9,34.9
						c-11.9-5.6-20.2-14.9-22.2-26.9C188.8,368.6,193,356.7,201.5,346.5z"/>
					<path fill="#FFFFFF" d="M213,406.8c-9-9.6-20.4-14.7-32.4-12.9c-11.5,1.7-21.4,9.4-28.5,20.6c-0.6,0.9-0.5,2.1,0.3,2.9
						c8.8,8.8,19.7,13.3,31.2,11.5C195.5,427.1,205.9,418.8,213,406.8z"/>
				</g>
				<g>
					<path fill="#FFFFFF" d="M178.8,313.9c0.9-0.6,2.1-0.4,2.9,0.3c8.7,8.8,13.2,19.7,11.5,31.1c-1.8,12-10.1,22.3-22.1,29.5
						c-9.6-9-14.6-20.4-12.8-32.4C160,331,167.6,321,178.8,313.9z"/>
					<path fill="#FFFFFF" d="M171.2,374.8c-5.6-11.9-14.9-20.3-26.9-22.2c-11.4-1.9-23.3,2.3-33.5,10.8c-0.8,0.7-1.1,1.9-0.6,2.8
						c5.7,11.1,14.7,18.7,26.1,20.6C148.2,388.7,160.6,384.1,171.2,374.8z"/>
				</g>
				<g>
					<path fill="#FFFFFF" d="M167.4,275.9c1-0.3,2.1,0.2,2.6,1.2c5.6,11,6.5,22.8,1.3,33.2c-5.4,10.8-16.5,18.1-30.1,21.2
						c-6.4-11.5-7.6-23.9-2.2-34.8C144.1,286.3,154.5,279.2,167.4,275.9z"/>
					<path fill="#FFFFFF" d="M141.2,331.4c-1.6-13.1-7.9-23.9-18.7-29.5c-10.3-5.3-22.8-5-35.2-0.1c-1,0.4-1.6,1.4-1.4,2.5
						c2,12.3,8.2,22.3,18.4,27.6C115.1,337.6,128.3,337,141.2,331.4z"/>
				</g>
				<g>
					<path fill="#FFFFFF" d="M168.2,236.2c1.1,0.1,2,0.9,2.1,1.9c1.9,12.2-0.9,23.7-9,31.9c-8.5,8.6-21.2,12.1-35.2,10.8
						c-2.5-12.9,0.2-25.1,8.7-33.7C142.9,238.9,154.9,235.4,168.2,236.2z"/>
					<path fill="#FFFFFF" d="M126.2,281c2.5-12.9-0.2-25.1-8.7-33.8c-8.1-8.3-20.2-11.8-33.4-11c-1.1,0.1-2,0.9-2.1,1.9
						c-1.9,12.3,0.9,23.7,9,32C99.4,278.8,112.2,282.2,126.2,281z"/>
				</g>
				<path fill="#FFFFFF" d="M125,247.4c10.9-7.4,17.7-17.9,17.8-30c0.1-12.1-6.5-23.6-17.3-32.6c-10.9,7.4-17.7,17.9-17.8,30
					C107.6,226.9,114.2,238.4,125,247.4z"/>
			</g>
		</g>
	</g>
</g>
</svg>
