<?xml version="1.0" encoding="utf-8"?>
<!-- Generator: Adobe Illustrator 18.1.1, SVG Export Plug-In . SVG Version: 6.00 Build 0)  -->
<svg version="1.1" id="Layer_1" xmlns="http://www.w3.org/2000/svg" xmlns:xlink="http://www.w3.org/1999/xlink" x="0px" y="0px"
	 viewBox="0 0 640 480" enable-background="new 0 0 640 480" xml:space="preserve">
<g>
	<circle fill="#58595B" cx="319.5" cy="240.6" r="299.1"/>
	<g>
		<path fill="#FFFFFF" d="M307,239.1v1.5C307,240,307,239.5,307,239.1C307,239,307,239.1,307,239.1z"/>
		<path fill="#FFFFFF" d="M351.2,239c0,0-0.1-0.1-0.1-0.1c0.1,0.6,0.1,1.1,0.1,1.7V239z"/>
		<path fill="#FFFFFF" d="M411,55.8H278c-10.6,0-19.3,8.6-19.3,19.3v71.7c-3.2,2.1-5.9,5-7.6,8.6l-1.8,3.7l-34.7,71.3
			c-8.1,16.6-7.7,36.3,1,52.6l41,76.4c2.8,5.1,4.2,10.9,4.2,16.8v38.1v4.3c0,3.8,3.1,6.8,6.8,6.8h4.3h109.1h4.3
			c3.8,0,6.8-3.1,6.8-6.8v-4.3v-65c0-6.7-1.1-16.7-6.3-26.4c-3.9-7.3-9.6-13.2-16.7-17.2v-9H411c10.6,0,19.3-8.6,19.3-19.3V75
			C430.2,64.4,421.6,55.8,411,55.8z M374.1,349.2v58H279v-31.1c0-8.8-2.2-17.6-6.4-25.3l-41-76.4c-6-11.2-6.3-24.7-0.7-36.1l21.4-44
			v85c0,12.1,9.9,22,22,22c25,0,24.8,0.1,25.4,0.1l7.1,0.1v-60.9v-1.5c0,0,0.1-0.1,0.1-0.1c0.9-9.8,10.4-17.4,22-17.4
			c11.5,0,21,7.6,22,17.3c0,0,0.1,0.1,0.1,0.1v1.6v77l4.6,1.7C372.3,325.2,374.1,342.2,374.1,349.2z"/>
	</g>
</g>
</svg>
