<?xml version="1.0" encoding="utf-8"?>
<!-- Generator: Adobe Illustrator 18.1.1, SVG Export Plug-In . SVG Version: 6.00 Build 0)  -->
<svg version="1.1" id="Layer_1" xmlns="http://www.w3.org/2000/svg" xmlns:xlink="http://www.w3.org/1999/xlink" x="0px" y="0px"
	 viewBox="0 0 640 480" enable-background="new 0 0 640 480" xml:space="preserve">
<g>
	<circle fill="#58595B" cx="319.8" cy="240.2" r="299.1"/>
	<path fill="#FFFFFF" d="M524,112L358,66.9c-2.2-0.6-4.4-0.9-6.7-0.9c-11.4,0-21.5,7.7-24.5,18.7l-7.3,26.9l-11-31.6
		c-3.6-10.2-13.2-17-24-17c-2.8,0-5.7,0.5-8.4,1.4L113.9,121c-6.4,2.2-11.5,6.8-14.5,12.9c-2.9,6.1-3.3,13-1.1,19.4l86.3,247.1
		c3.6,10.2,13.2,17,24,17c2.9,0,5.7-0.5,8.4-1.4l102.6-35.8L442,413.5c2.2,0.6,4.4,0.9,6.7,0.9c11.4,0,21.5-7.7,24.5-18.7
		l68.7-252.5C545.5,129.7,537.5,115.7,524,112z M520,137.2l-68.7,252.5c-0.4,1.4-1.7,2.1-2.7,2.1c-0.2,0-0.5,0-0.8-0.1l-90.8-24.7
		l22.1-7.7c13.2-4.6,20.2-19.1,15.6-32.3l-62.1-177.9l15.9-58.6c0.4-1.4,1.7-2.1,2.7-2.1c0.2,0,0.5,0,0.7,0.1l166,45.1
		C519.6,134.2,520.5,135.7,520,137.2z"/>
</g>
</svg>
