<?xml version="1.0" encoding="utf-8"?>
<!-- Generator: Adobe Illustrator 18.1.1, SVG Export Plug-In . SVG Version: 6.00 Build 0)  -->
<svg version="1.1" id="Layer_1" xmlns="http://www.w3.org/2000/svg" xmlns:xlink="http://www.w3.org/1999/xlink" x="0px" y="0px"
	 viewBox="0 0 640 480" enable-background="new 0 0 640 480" xml:space="preserve">
<g>
	<circle fill="#58595B" cx="320" cy="240.2" r="299.1"/>
	<g>
		<path fill="#FFFFFF" d="M471.4,151.6l28-28l-22.8-22.8l-28.1,28.1C456.7,135.8,464.4,143.4,471.4,151.6z"/>
		<path fill="#FFFFFF" d="M191.6,128.9l-28.1-28.1l-22.8,22.8l28,28C175.6,143.4,183.3,135.8,191.6,128.9z"/>
		<path fill="#FFFFFF" d="M281.3,59.6h12.9v20.7h51.7V59.6h12.9c4.5,0,8.2-3.4,8.2-7.6V20.7c0-4.2-3.7-7.6-8.2-7.6h-77.4
			c-4.5,0-8.2,3.4-8.2,7.6V52C273.1,56.2,276.8,59.6,281.3,59.6z"/>
		<path fill="#FFFFFF" d="M320,95.3c-102.6,0-186,83.4-186,186c0,102.6,83.4,186,186,186c102.6,0,186-83.4,186-186
			C506,178.7,422.6,95.3,320,95.3z M324.6,413.5V400v-7.2h-9.2v7.2v13.4c-69.3-2.4-125.2-58.3-127.5-127.5h13.4h7.1v-9.2h-7.1h-13.4
			c2.4-69.3,58.3-125.2,127.5-127.5v13.5v7.1h9.2v-7.1v-13.5c69.3,2.4,125.2,58.3,127.5,127.5h-13.5h-7.1v9.2h7.1h13.5
			C449.8,355.2,393.9,411.1,324.6,413.5z"/>
		<path fill="#FFFFFF" d="M390.8,203.8L326.4,257c8.6,2.3,15.4,9,17.8,17.6l53.2-64.3c1.5-1.8,1.4-4.6-0.3-6.3
			C395.3,202.4,392.6,202.3,390.8,203.8z"/>
		<path fill="#FFFFFF" d="M320,261.6c-10.9,0-19.7,8.8-19.7,19.7c0,10.9,8.8,19.7,19.7,19.7c10.9,0,19.7-8.8,19.7-19.7
			C339.7,270.4,330.9,261.6,320,261.6z"/>
	</g>
</g>
</svg>
