<?xml version="1.0" encoding="utf-8"?>
<!-- Generator: Adobe Illustrator 18.1.1, SVG Export Plug-In . SVG Version: 6.00 Build 0)  -->
<svg version="1.1" id="Layer_1" xmlns="http://www.w3.org/2000/svg" xmlns:xlink="http://www.w3.org/1999/xlink" x="0px" y="0px"
	 viewBox="0 0 640 480" enable-background="new 0 0 640 480" xml:space="preserve">
<g>
	<circle fill="#58595B" cx="320" cy="240.3" r="299.1"/>
	<g>
		<g>
			<path fill="#FFFFFF" d="M215.8,236.6L176.7,253l89.3,37.5c-26.4,14.6-40.6,32.2-40.6,50.8c0,18.6,14.3,36.3,40.6,50.8l-91.3,38.3
				l39.1,16.4l251.6-105.5L215.8,236.6z M292.3,301.6l94.8,39.8l-94.8,39.8C252.3,357.4,252.3,325.3,292.3,301.6z"/>
		</g>
		<g>
			<path fill="#FFFFFF" d="M413,37.2c0-1.9,1.1-3.5,2.6-3.5h18c1.4,0,2.6,1.6,2.6,3.5v297.9c0,1.9-1.1,3.5-2.6,3.5h-18
				c-1.4,0-2.6-1.6-2.6-3.5V37.2z"/>
			<polygon fill="#FFFFFF" points="405.3,41.1 405.3,196.4 195.1,118.7 			"/>
		</g>
	</g>
</g>
</svg>
