<?xml version="1.0" encoding="utf-8"?>
<!-- Generator: Adobe Illustrator 18.1.1, SVG Export Plug-In . SVG Version: 6.00 Build 0)  -->
<svg version="1.1" id="Layer_1" xmlns="http://www.w3.org/2000/svg" xmlns:xlink="http://www.w3.org/1999/xlink" x="0px" y="0px"
	 viewBox="0 0 640 480" enable-background="new 0 0 640 480" xml:space="preserve">
<g>
	<circle fill="#58595B" cx="319.3" cy="240.2" r="299.1"/>
	<g>
		<path fill="#FFFFFF" d="M205.9,50.5c0-2.5-1.5-4.5-3.3-4.5h-23.2c-1.8,0-3.3,2-3.3,4.5v384.1c0,2.5,1.5,4.5,3.3,4.5h23.2
			c1.8,0,3.3-2,3.3-4.5V50.5z"/>
		<g>
			<path fill="#FFFFFF" d="M462.6,81.7c-16.3-23.4-36.8-41.7-65.6-40.3c-22.9,1.1-43.2,12.1-62.6,21.3
				c-19.4,9.2-39.7,20.1-62.5,21.3C248.8,85.1,231,73.6,216.5,57l-0.1,192.2c11.7,9.5,25.4,15.5,41.8,15.3
				c24.8-0.3,47-12.3,67.8-22.2c19.5-9.3,39.7-20,62.4-21.9c32.8-2.8,55.9,18.6,74,46.1L462.6,81.7z"/>
		</g>
	</g>
</g>
</svg>
