<?xml version="1.0" encoding="utf-8"?>
<!-- Generator: Adobe Illustrator 18.1.1, SVG Export Plug-In . SVG Version: 6.00 Build 0)  -->
<svg version="1.1" id="Layer_1" xmlns="http://www.w3.org/2000/svg" xmlns:xlink="http://www.w3.org/1999/xlink" x="0px" y="0px"
	 viewBox="0 0 640 480" enable-background="new 0 0 640 480" xml:space="preserve">
<g>
	<circle fill="#58595B" cx="319.4" cy="240.6" r="299.1"/>
	<g>
		<g>
			<g>
				<g>
					<g>
						<path fill="#FFFFFF" d="M353.8,387.9c-8.3,0.6-16.4,4.5-22.7,11.8c-6.2,7.2-9.4,16.4-9.5,25.6c8.3-0.6,16.4-4.5,22.7-11.8
							C350.5,406.3,353.7,397.1,353.8,387.9z"/>
					</g>
					<g>
						<path fill="#FFFFFF" d="M364.2,451c-7.9,3-16.7,2.9-24.8-1.1c-8.1-4-14-11.2-17-19.7c7.9-3,16.7-2.9,24.8,1.1
							C355.3,435.3,361.2,442.5,364.2,451z"/>
					</g>
				</g>
				<g>
					<g>
						<path fill="#FFFFFF" d="M381.7,375.7c-8.1,2-15.7,7.3-20.8,15.5c-5.1,8.2-7,17.8-5.8,26.9c8.1-2,15.6-7.3,20.8-15.5
							C381,394.4,382.9,384.8,381.7,375.7z"/>
					</g>
					<g>
						<path fill="#FFFFFF" d="M400.9,436c-7.4,4.3-16.1,5.8-24.7,3.2c-8.6-2.6-15.4-8.6-19.6-16.4c7.4-4.3,16.1-5.7,24.7-3.2
							C389.9,422.1,396.7,428.2,400.9,436z"/>
					</g>
				</g>
				<g>
					<g>
						<path fill="#FFFFFF" d="M407.6,358.9c-7.8,3.4-14.5,9.9-18.4,18.9c-3.9,9-4.4,18.8-1.9,27.5c7.8-3.4,14.5-9.9,18.4-18.9
							C409.6,377.4,410.1,367.6,407.6,358.9z"/>
					</g>
					<g>
						<path fill="#FFFFFF" d="M435.2,414.9c-6.7,5.6-15.2,8.5-24.1,7.4c-8.9-1-16.5-5.8-21.8-12.8c6.7-5.6,15.2-8.5,24-7.4
							C422.3,403.2,429.9,408,435.2,414.9z"/>
					</g>
				</g>
				<g>
					<g>
						<path fill="#FFFFFF" d="M430.9,337.9c-7.2,4.7-12.9,12.3-15.6,21.8c-2.6,9.5-1.7,19.2,2,27.4c7.2-4.7,12.9-12.2,15.6-21.8
							C435.5,355.7,434.6,346,430.9,337.9z"/>
					</g>
					<g>
						<path fill="#FFFFFF" d="M466.2,388.3c-5.8,6.6-13.8,11-22.8,11.5c-8.9,0.5-17.2-2.9-23.4-8.8c5.9-6.6,13.8-11,22.8-11.5
							C451.7,378.9,460,382.3,466.2,388.3z"/>
					</g>
				</g>
				<g>
					<g>
						<path fill="#FFFFFF" d="M451,313.1c-6.5,5.9-11.1,14.3-12.3,24.1c-1.3,9.8,1,19.2,5.8,26.6c6.5-5.9,11.1-14.3,12.3-24.1
							C458.1,329.9,455.8,320.5,451,313.1z"/>
					</g>
					<g>
						<path fill="#FFFFFF" d="M493.1,356.6c-4.8,7.5-12.2,13.2-21,15.2c-8.8,2-17.4,0.1-24.4-4.6c4.9-7.5,12.2-13.2,20.9-15.2
							C477.4,349.9,486.1,351.8,493.1,356.6z"/>
					</g>
				</g>
				<g>
					<g>
						<path fill="#FFFFFF" d="M467.5,285.2c-5.6,6.9-9,16-8.8,25.9c0.1,9.9,3.8,18.8,9.5,25.2c5.6-6.9,9-16,8.8-25.9
							C476.8,300.5,473.2,291.7,467.5,285.2z"/>
					</g>
					<g>
						<path fill="#FFFFFF" d="M515.2,320.8c-3.7,8.3-10.2,15.1-18.6,18.6c-8.4,3.5-17.2,3.1-24.8-0.3c3.7-8.3,10.2-15.1,18.6-18.6
							C498.8,316.9,507.6,317.3,515.2,320.8z"/>
					</g>
				</g>
				<g>
					<g>
						<path fill="#FFFFFF" d="M479.8,254.9c-4.6,7.7-6.6,17.3-5.1,27c1.5,9.7,6.4,17.8,13,23.2c4.6-7.8,6.6-17.3,5.1-27
							C491.3,268.4,486.4,260.3,479.8,254.9z"/>
					</g>
					<g>
						<path fill="#FFFFFF" d="M532.2,281.6c-2.5,8.8-8,16.6-15.8,21.6c-7.8,4.9-16.6,6.1-24.7,4c2.5-8.8,8-16.6,15.8-21.6
							C515.3,280.7,524.1,279.5,532.2,281.6z"/>
					</g>
				</g>
				<g>
					<g>
						<path fill="#FFFFFF" d="M487.7,222.9c-3.4,8.4-4.1,18.2-1.2,27.5c2.9,9.3,8.8,16.4,16.1,20.6c3.4-8.4,4.1-18.2,1.2-27.5
							C501,234.2,495.1,227.1,487.7,222.9z"/>
					</g>
					<g>
						<path fill="#FFFFFF" d="M543.4,240.2c-1.3,9.1-5.5,17.8-12.6,24c-7.1,6.2-15.6,8.9-23.9,8.2c1.3-9.1,5.5-17.7,12.6-24
							C526.6,242.1,535.1,239.5,543.4,240.2z"/>
					</g>
				</g>
				<g>
					<g>
						<path fill="#FFFFFF" d="M491.1,190.1c-2.2,8.9-1.5,18.6,2.7,27.3c4.2,8.7,11.1,14.7,18.9,17.5c2.2-8.9,1.5-18.6-2.7-27.3
							C505.8,198.9,498.9,192.9,491.1,190.1z"/>
					</g>
					<g>
						<path fill="#FFFFFF" d="M548.6,197.4c0,9.2-3,18.4-9.1,25.8c-6.1,7.4-14.2,11.4-22.5,12.2c0-9.2,3-18.4,9.1-25.8
							C532.3,202.3,540.4,198.2,548.6,197.4z"/>
					</g>
				</g>
				<g>
					<path fill="#FFFFFF" d="M524.6,154.6c5.5,8.3,8.3,18.9,7,30.1c-1.3,11.2-6.4,20.8-13.7,27.6c-5.5-8.3-8.3-18.9-7-30.1
						C512.2,171,517.3,161.4,524.6,154.6z"/>
				</g>
			</g>
			<g>
				<g>
					<g>
						<path fill="#FFFFFF" d="M285,387.9c8.3,0.6,16.4,4.5,22.7,11.8c6.2,7.2,9.4,16.4,9.5,25.6c-8.3-0.6-16.4-4.5-22.7-11.8
							C288.3,406.3,285.1,397.1,285,387.9z"/>
					</g>
					<g>
						<path fill="#FFFFFF" d="M274.5,451c7.9,3,16.7,2.9,24.8-1.1c8.1-4,14-11.2,17-19.7c-7.9-3-16.7-2.9-24.8,1.1
							C283.5,435.3,277.6,442.5,274.5,451z"/>
					</g>
				</g>
				<g>
					<g>
						<path fill="#FFFFFF" d="M257.1,375.7c8.1,2,15.6,7.3,20.8,15.5c5.1,8.2,7,17.8,5.8,26.9c-8.1-2-15.6-7.3-20.8-15.5
							C257.7,394.4,255.9,384.8,257.1,375.7z"/>
					</g>
					<g>
						<path fill="#FFFFFF" d="M237.8,436c7.4,4.3,16.1,5.8,24.7,3.2c8.6-2.6,15.4-8.6,19.6-16.4c-7.4-4.3-16.1-5.7-24.7-3.2
							C248.9,422.1,242,428.2,237.8,436z"/>
					</g>
				</g>
				<g>
					<g>
						<path fill="#FFFFFF" d="M231.2,358.9c7.8,3.4,14.5,9.9,18.4,18.9c3.9,9,4.4,18.8,1.9,27.5c-7.8-3.4-14.5-9.9-18.4-18.9
							C229.2,377.4,228.7,367.6,231.2,358.9z"/>
					</g>
					<g>
						<path fill="#FFFFFF" d="M203.6,414.9c6.7,5.6,15.2,8.5,24.1,7.4c8.9-1,16.5-5.8,21.8-12.8c-6.7-5.6-15.2-8.5-24-7.4
							C216.5,403.2,208.8,408,203.6,414.9z"/>
					</g>
				</g>
				<g>
					<g>
						<path fill="#FFFFFF" d="M207.9,337.9c7.2,4.7,12.9,12.3,15.6,21.8c2.6,9.5,1.7,19.2-2,27.4c-7.2-4.7-12.9-12.2-15.6-21.8
							C203.3,355.7,204.2,346,207.9,337.9z"/>
					</g>
					<g>
						<path fill="#FFFFFF" d="M172.6,388.3c5.8,6.6,13.8,11,22.8,11.5c8.9,0.5,17.2-2.9,23.4-8.8c-5.9-6.6-13.8-11-22.8-11.5
							C187.1,378.9,178.8,382.3,172.6,388.3z"/>
					</g>
				</g>
				<g>
					<g>
						<path fill="#FFFFFF" d="M187.7,313.1c6.5,5.9,11.1,14.3,12.3,24.1c1.3,9.8-1,19.2-5.8,26.6c-6.5-5.9-11.1-14.3-12.3-24.1
							C180.7,329.9,183,320.5,187.7,313.1z"/>
					</g>
					<g>
						<path fill="#FFFFFF" d="M145.7,356.6c4.8,7.5,12.2,13.2,20.9,15.2c8.8,2,17.4,0.1,24.4-4.6c-4.9-7.5-12.2-13.2-20.9-15.2
							C161.3,349.9,152.7,351.8,145.7,356.6z"/>
					</g>
				</g>
				<g>
					<g>
						<path fill="#FFFFFF" d="M171.3,285.2c5.6,6.9,9,16,8.8,25.9c-0.1,9.9-3.7,18.8-9.5,25.2c-5.6-6.9-9-16-8.8-25.9
							C161.9,300.5,165.5,291.7,171.3,285.2z"/>
					</g>
					<g>
						<path fill="#FFFFFF" d="M123.5,320.8c3.7,8.3,10.2,15.1,18.6,18.6c8.4,3.5,17.2,3.1,24.8-0.3c-3.7-8.3-10.2-15.1-18.6-18.6
							C140,316.9,131.1,317.3,123.5,320.8z"/>
					</g>
				</g>
				<g>
					<g>
						<path fill="#FFFFFF" d="M159,254.9c4.6,7.7,6.6,17.3,5.1,27c-1.5,9.7-6.4,17.8-13,23.2c-4.6-7.8-6.6-17.3-5.1-27
							C147.5,268.4,152.4,260.3,159,254.9z"/>
					</g>
					<g>
						<path fill="#FFFFFF" d="M106.6,281.6c2.5,8.8,8,16.6,15.8,21.6c7.8,4.9,16.6,6.1,24.7,4c-2.5-8.8-8-16.6-15.8-21.6
							C123.4,280.7,114.6,279.5,106.6,281.6z"/>
					</g>
				</g>
				<g>
					<g>
						<path fill="#FFFFFF" d="M151,222.9c3.4,8.4,4.1,18.2,1.2,27.5c-2.9,9.3-8.8,16.4-16.1,20.6c-3.4-8.4-4.1-18.2-1.2-27.5
							C137.8,234.2,143.7,227.1,151,222.9z"/>
					</g>
					<g>
						<path fill="#FFFFFF" d="M95.4,240.2c1.3,9.1,5.5,17.8,12.6,24c7.1,6.2,15.6,8.9,23.9,8.2c-1.3-9.1-5.5-17.7-12.6-24
							C112.2,242.1,103.6,239.5,95.4,240.2z"/>
					</g>
				</g>
				<g>
					<g>
						<path fill="#FFFFFF" d="M147.7,190.1c2.2,8.9,1.5,18.6-2.7,27.3c-4.2,8.7-11.1,14.7-18.9,17.5c-2.2-8.9-1.5-18.6,2.7-27.3
							C133,198.9,139.9,192.9,147.7,190.1z"/>
					</g>
					<g>
						<path fill="#FFFFFF" d="M90.1,197.4c0,9.2,3,18.4,9.1,25.8c6.1,7.4,14.2,11.4,22.5,12.2c0-9.2-3-18.4-9.1-25.8
							C106.5,202.3,98.4,198.2,90.1,197.4z"/>
					</g>
				</g>
				<g>
					<path fill="#FFFFFF" d="M114.2,154.6c-5.5,8.3-8.3,18.9-7,30.1c1.3,11.2,6.4,20.8,13.7,27.6c5.5-8.3,8.3-18.9,7-30.1
						C126.5,171,121.4,161.4,114.2,154.6z"/>
				</g>
			</g>
		</g>
		<g>
			<path fill="#FFFFFF" d="M319.4,386.9l-7.5-3.3c-21.2-9.3-40.7-21-57.8-34.9c-17.9-14.5-33.3-31.4-45.9-50.3
				c-27-40.4-40.6-88.9-40.6-144.1v-43.6l13.9-3.7c26.6-7.2,54.2-19.5,82.2-36.7c15.8-9.7,30.4-20.3,43.5-31.7l12.2-10.6l12.2,10.6
				c13.1,11.3,27.8,22,43.5,31.7c28,17.2,55.6,29.6,82.2,36.7l13.9,3.7v43.6c0,55.2-13.7,103.7-40.6,144.1
				c-12.6,18.8-28,35.8-45.9,50.3c-17.1,13.9-36.6,25.6-57.8,34.9L319.4,386.9z M205.1,139.1v15.3c0,88.4,40.5,156.1,114.3,191.4
				c73.8-35.4,114.3-103,114.3-191.4v-15.3c-25.7-8.3-51.9-20.7-78.2-36.9c-12.7-7.8-24.8-16.2-36.1-25.1
				c-11.3,8.9-23.4,17.3-36.1,25.1C257,118.4,230.7,130.7,205.1,139.1z"/>
		</g>
		<g>
			<path fill="#FFFFFF" d="M319.4,124.1c-46,0-83.4,37.4-83.4,83.4c0,46,37.4,83.4,83.4,83.4c46,0,83.4-37.4,83.4-83.4
				C402.8,161.5,365.4,124.1,319.4,124.1z M369.2,158.5l-27.7-3.6c-5.7-4.9-11.3-8.6-19.6-11.9v-6.8c18.5,0.6,35.3,8.4,47.6,20.6
				L369.2,158.5z M370.1,163.6c5.4,8.1,8.9,14.3,13.4,22.9l-10.9,25.1l-19.6-2.4l-17.2-31.1l7.5-17.9L370.1,163.6z M331.3,180.3
				l17.6,31.7c-4.1,8.3-8.4,13.5-13.8,21.1h-33.6c-6.2-12-7-13.3-13.4-23.6l16.7-29.1C313.3,179.8,322.2,179.2,331.3,180.3z
				 M316.9,143c-8.3,3.2-13.8,5.5-21.5,10.8l-25,2.8v-1c12.2-11.6,28.5-18.9,46.5-19.5V143z M268.8,161.8L294,159l6.7,18.7l-17.3,30
				l-17.3,1l-10.7-23.4c4.1-9,7.8-15.7,13.3-24L268.8,161.8z M262.3,212l0.2-0.1c-0.6,7.2-0.8,14,0,22.7l-7.3,3.9
				c-4.6-9.4-7.1-19.9-7.1-31.1c0-6.7,0.9-13.3,2.7-19.5h0.5L262.3,212z M264.4,239.2c5.7,4.6,12.4,8.6,20.9,12.6l14,23.9l-0.3,0.2
				c-17.6-5.3-32.4-17.2-41.5-32.9L264.4,239.2z M290.3,250.4l10.2-12.4h34.6l12.9,14.9c-20.4,23.2-18.1,20.6-18.8,21.4
				c-9.6,1.1-15.2,0.5-24.9-0.2L290.3,250.4z M337.1,276.6l-2.2-1.2l18.7-21.3c8.6-4.6,13.2-7.7,19.7-12.9l6.3,4.7
				C369.8,260.9,354.8,272.1,337.1,276.6z M375.5,236.8c1.3-9.1,1.2-14.7,0.8-21.4l11.4-26h0.7c1.5,5.8,2.3,11.9,2.3,18.2
				c0,12.4-3.2,24-8.7,34.2L375.5,236.8z"/>
		</g>
	</g>
</g>
</svg>
