<?xml version="1.0" encoding="utf-8"?>
<!-- Generator: Adobe Illustrator 18.1.1, SVG Export Plug-In . SVG Version: 6.00 Build 0)  -->
<svg version="1.1" id="Layer_1" xmlns="http://www.w3.org/2000/svg" xmlns:xlink="http://www.w3.org/1999/xlink" x="0px" y="0px"
	 viewBox="0 0 640 480" enable-background="new 0 0 640 480" xml:space="preserve">
<g>
	<circle fill="#58595B" cx="319" cy="234.6" r="299.1"/>
	<g>
		<g>
			<path fill="#FFFFFF" d="M135.5,271.5c-2.3-0.3-4.7-0.6-7.1-0.8l-0.4,3.6c2.3,0.2,4.6,0.5,6.9,0.8L135.5,271.5z"/>
			<path fill="#FFFFFF" d="M226.3,309.2c-1.8-1.5-3.7-3.1-5.5-4.5l-2.2,2.9c1.8,1.4,3.6,2.9,5.4,4.4L226.3,309.2z"/>
			<path fill="#FFFFFF" d="M190.1,286.6c-2.1-1-4.4-1.9-6.6-2.8l-1.3,3.4c2.2,0.9,4.3,1.8,6.4,2.7L190.1,286.6z"/>
			<path fill="#FFFFFF" d="M233.9,321.6l2.7-2.5c-1.6-1.7-3.3-3.4-5-5.1l-2.5,2.6C230.7,318.2,232.4,319.9,233.9,321.6z"/>
			<path fill="#FFFFFF" d="M196.6,289.6l-1.6,3.3c2.1,1,4.2,2.1,6.2,3.2l1.8-3.2C200.8,291.8,198.7,290.7,196.6,289.6z"/>
			<path fill="#FFFFFF" d="M149.5,273.9c-2.3-0.5-4.7-0.9-7-1.3l-0.6,3.6c2.3,0.4,4.6,0.8,6.9,1.3L149.5,273.9z"/>
			<path fill="#FFFFFF" d="M176.9,281.4c-2.2-0.8-4.5-1.5-6.8-2.2l-1.1,3.5c2.2,0.7,4.5,1.4,6.6,2.2L176.9,281.4z"/>
			<path fill="#FFFFFF" d="M215,300.5c-1.9-1.3-3.9-2.6-6-3.9l-1.9,3.1c2,1.2,3.9,2.5,5.8,3.8L215,300.5z"/>
			<path fill="#FFFFFF" d="M163.3,277.2c-2.3-0.6-4.6-1.2-6.9-1.7l-0.8,3.5c2.3,0.5,4.5,1.1,6.8,1.7L163.3,277.2z"/>
			<path fill="#FFFFFF" d="M121.4,270.1c-2.4-0.2-4.8-0.3-7.1-0.4l-0.1,3.6c2.3,0.1,4.6,0.2,7,0.4L121.4,270.1z"/>
			<path fill="#FFFFFF" d="M113.9,286.2c2,0.2,4,0.4,6.1,0.7l0.5-3.6c-2.1-0.3-4.1-0.5-6.2-0.7l-1-0.1l-0.3,3.6L113.9,286.2z"/>
			<path fill="#FFFFFF" d="M192.5,313.5c1.9,1.4,3.8,2.8,5.6,4.3l2.3-2.8c-1.9-1.5-3.8-3-5.8-4.4L192.5,313.5z"/>
			<path fill="#FFFFFF" d="M134.7,285.7c-2.3-0.5-4.7-0.9-7.1-1.3L127,288c2.3,0.4,4.7,0.8,7,1.3L134.7,285.7z"/>
			<path fill="#FFFFFF" d="M148.8,289.2c-2.3-0.7-4.6-1.3-7-1.9l-0.9,3.5c2.3,0.6,4.6,1.2,6.9,1.8L148.8,289.2z"/>
			<path fill="#FFFFFF" d="M188.6,306.5c-2-1.3-4.1-2.5-6.3-3.7l-1.8,3.2c2.1,1.1,4.1,2.4,6.1,3.6L188.6,306.5z"/>
			<path fill="#FFFFFF" d="M162.5,293.7c-2.2-0.8-4.5-1.6-6.8-2.4l-1.1,3.5c2.3,0.7,4.5,1.5,6.7,2.4L162.5,293.7z"/>
			<path fill="#FFFFFF" d="M175.9,299.4c-2.1-1-4.4-2.1-6.6-3l-1.4,3.3c2.2,0.9,4.4,1.9,6.4,2.9L175.9,299.4z"/>
			<path fill="#FFFFFF" d="M157.6,261.8c-2.5-0.4-5-0.7-7.4-1.1l-0.5,3.6c2.4,0.3,4.9,0.7,7.3,1L157.6,261.8z"/>
			<path fill="#FFFFFF" d="M271,316.1l-2.6,2.6c1.7,1.7,3.4,3.5,5.1,5.3l2.7-2.5C274.6,319.7,272.8,317.8,271,316.1z"/>
			<path fill="#FFFFFF" d="M285.9,333.1c-1.5-2-3.1-4-4.7-5.9l-2.8,2.3c1.6,1.9,3.1,3.8,4.6,5.8L285.9,333.1z"/>
			<path fill="#FFFFFF" d="M228.8,284.9c-2.2-1.2-4.4-2.3-6.7-3.4l-1.6,3.3c2.2,1.1,4.4,2.2,6.6,3.3L228.8,284.9z"/>
			<path fill="#FFFFFF" d="M215.2,278.3c-2.3-1-4.6-2-6.9-2.9l-1.3,3.4c2.3,0.9,4.6,1.9,6.8,2.9L215.2,278.3z"/>
			<path fill="#FFFFFF" d="M257.6,308.7c1.9,1.6,3.7,3.2,5.5,4.9l2.5-2.7c-1.8-1.7-3.7-3.4-5.7-5L257.6,308.7z"/>
			<path fill="#FFFFFF" d="M245.9,299.7c2,1.4,4,2.9,5.9,4.4l2.2-2.9c-2-1.5-4-3-6.1-4.5L245.9,299.7z"/>
			<path fill="#FFFFFF" d="M241.8,292.5c-2.1-1.3-4.2-2.7-6.4-3.9l-1.8,3.1c2.1,1.2,4.2,2.5,6.3,3.9L241.8,292.5z"/>
			<path fill="#FFFFFF" d="M201.3,272.8c-2.3-0.8-4.7-1.6-7.1-2.4l-1.1,3.5c2.4,0.8,4.7,1.5,7,2.4L201.3,272.8z"/>
			<path fill="#FFFFFF" d="M186.9,268.2c-2.4-0.7-4.8-1.3-7.3-1.9l-0.9,3.5c2.4,0.6,4.8,1.2,7.1,1.9L186.9,268.2z"/>
			<path fill="#FFFFFF" d="M172.4,264.5c-2.4-0.5-4.9-1-7.4-1.5l-0.7,3.6c2.4,0.5,4.9,0.9,7.3,1.5L172.4,264.5z"/>
			<path fill="#FFFFFF" d="M142.7,259.9c-2.5-0.2-5-0.5-7.5-0.6l-0.2,3.6c2.4,0.2,4.9,0.4,7.4,0.6L142.7,259.9z"/>
		</g>
		<g>
			<path fill="#FFFFFF" d="M536.5,208.1l-4.6-18.6c-1.7-6.8-7-12.3-13.8-14.2l-3.8-1.1c-1.8-0.5-3.6-0.8-5.4-0.8
				c-6.6,0-12.8,3.3-16.5,8.8l-1.8,2.7c-4.4,6.6-11,11.1-18.8,12.8c-2.8,0.6-5.8,0.9-9,0.9c-13.2,0-29.7-5.2-45.2-14.2
				c-5.9-3.4-11.3-7.2-16-11.1l38.5-25.5c4.4-2.9,7.1-7.6,7.2-12.7c0.2-5.1-2.3-10-6.5-13.1l-7.8-5.8c-4.1-3-9.2-4.7-14.5-4.7
				c-5.9,0-11.5,2.1-15.9,5.8l-29.4,25.6c-2.3-0.8-4.8-1.2-7.5-1.2c-4.9,0-9.8,1.4-14.4,4l-18.5,10.6l12.3,13.4l15-8.6
				c1.8-1,3.8-1.6,5.6-1.6c2.5,0,3.2,1.2,3.5,1.8l2.2,4.2c6.2,11.7,19.7,24.3,37.1,34.3c18.4,10.7,37.6,16.6,54.1,16.6
				c4.5,0,8.8-0.4,12.7-1.3c12.3-2.6,22.9-9.8,29.8-20.3l1.8-2.7c0.5-0.7,1.4-1.1,2.2-0.8l3.8,1.1c0.7,0.2,1.2,0.8,1.4,1.4l4.6,18.6
				c3,12,4.1,24.4,3.4,36.8l-1,17.6c-1,17.6-7.1,34.5-17.4,48.9c-0.4,0.5-1,0.9-1.6,0.9l-29.8,0.7c-22.9-53.8-67.4-88.3-121.1-93.3
				c-4.4-0.4-9-0.6-13.5-0.6h-0.3c-3.8,0-7,2.9-7.4,6.7c-0.4,3.8,2.2,7.3,6,8c23.3,4.5,44.1,15.1,61.7,31.7
				c13.9,13,25.4,29.6,33.8,48.4l-46.1,1c-16.6-37.2-47.9-61-85.5-64.5c-3.2-0.3-6.4-0.4-9.6-0.4h-0.2c-2.7,0-5,2.1-5.3,4.8
				c-0.3,2.7,1.6,5.2,4.3,5.7c29.4,5.6,53.4,25.5,67.2,55.1l-30.4,0.7l-46.6,1.9c-5.3,0.2-10.6,0.3-15.9,0.3
				c-46.1,0-91.4-7.9-134.8-23.3l-3.4-1.2c-4.3-1.5-7.7-4.9-9.4-9.1c-1.7-4.3-1.4-9,0.7-13.1c2.4-4.6,6.9-8,12.1-8.9l41.4-7.4
				c17.2-3.1,33.7-9,48.9-17.7l7.2-4.1l-12-13.6l-4.1,2.3c-13.4,7.7-28,12.9-43.2,15.7l-41.4,7.4c-10.5,1.9-19.8,8.7-24.7,18.2
				c-4.5,8.6-5,18.7-1.5,27.8c2.9,7.5,8.4,13.6,15.4,17.3c1.4,1.2,2.9,2.2,4.5,3.1l3.4,9c0.9,2.5,2.9,4.4,5.4,5.3l14.6,5.3
				c4.7,1.7,9.8-0.7,11.5-5.3l0.7-2c2.6,0.8,5.3,1.5,8,2.2l5,10.8c1.2,2.6,3.4,4.5,6.1,5.3l16,4.5c5.1,1.5,10.4-1.5,11.9-6.6
				l1.6-5.6c4.7,0.7,9.5,1.4,14.3,1.9l5.7,9.3c1.6,2.7,4.4,4.5,7.5,5l18.4,2.9c5.9,0.9,11.4-3,12.3-8.9l0.9-5.6c0.7,0,1.5,0,2.2,0
				c5.4,0,10.9-0.1,16.2-0.3l0.3,0l6.8,9c1.8,2.4,4.6,3.9,7.6,4.1l17.7,1.1c5.6,0.4,10.5-3.9,10.9-9.5l0.5-6.4l2.1-0.1l82.1-1.8
				l3.6,4.8c1.8,2.4,4.6,3.9,7.6,4.1l17.7,1.1c5.6,0.4,10.5-3.9,10.9-9.5l0.1-1.4l11.9-0.3l8.6,0.8c0.2,0,0.5,0,0.7,0
				c1.4,0,2.7-0.4,3.9-1.1l3.8,5.4c1.6,2.3,4.1,3.8,6.7,4l15.6,1.4c5,0.5,9.2-3.5,9.4-8.8l0.3-5.9c1.1-0.8,2.1-1.8,3-2.8
				c2.1-1.3,4-3.1,5.5-5.2c12.3-17.1,19.4-37.2,20.7-58.2l1-17.6C541.2,236,539.9,221.8,536.5,208.1z"/>
			<polygon fill="#FFFFFF" points="282.7,205.5 292.3,200 280.1,186.5 270.6,191.9 			"/>
			<polygon fill="#FFFFFF" points="249.3,224.6 259.9,218.5 247.8,205 237.3,211 			"/>
			<path fill="#FFFFFF" d="M315.2,186.9l7.4-4.3l-12.1-13.3c0-0.1-0.1-0.1-0.1-0.2l-7.4,4.2L315.2,186.9z"/>
			<path fill="#FFFFFF" d="M349.8,204c1.4,1.5,3.3,2.3,5.3,2.3c1.7,0,3.4-0.6,4.8-1.8l0.1-0.1c2.9-2.6,3.1-7.1,0.5-10l-35.1-38.4
				c-1.4-1.5-3.3-2.3-5.3-2.3c-1.7,0-3.4,0.6-4.8,1.8l-0.1,0.1c-2.9,2.6-3.1,7.1-0.5,10L349.8,204z"/>
			<path fill="#FFFFFF" d="M315.4,217c1.4,1.5,3.3,2.3,5.3,2.3c1.7,0,3.4-0.6,4.8-1.8l0.1-0.1c2.9-2.6,3.1-7.1,0.5-10l-31.5-34.8
				c-1.4-1.5-3.3-2.3-5.3-2.3c-1.7,0-3.4,0.6-4.8,1.8l-0.1,0.1c-2.9,2.6-3.1,7.1-0.5,10L315.4,217z"/>
			<path fill="#FFFFFF" d="M279.9,232.4c1.4,1.5,3.3,2.3,5.3,2.3c1.7,0,3.4-0.6,4.8-1.8l0.1-0.1c2.9-2.6,3.1-7.1,0.5-10l-28.6-32.1
				c-1.4-1.5-3.3-2.3-5.3-2.3c-1.7,0-3.4,0.6-4.8,1.8l-0.1,0.1c-2.9,2.6-3.1,7.1-0.5,10L279.9,232.4z"/>
			<path fill="#FFFFFF" d="M243.2,247.9c1.4,1.5,3.3,2.3,5.3,2.3c1.7,0,3.4-0.6,4.8-1.8l0.1-0.1c2.9-2.6,3.1-7.1,0.5-10l-25-28.3
				c-1.4-1.5-3.3-2.3-5.3-2.3c-1.7,0-3.4,0.6-4.8,1.8l-0.1,0.1c-2.9,2.6-3.1,7.1-0.5,10L243.2,247.9z"/>
		</g>
	</g>
</g>
</svg>
