<?xml version="1.0" encoding="utf-8"?>
<!-- Generator: Adobe Illustrator 18.1.1, SVG Export Plug-In . SVG Version: 6.00 Build 0)  -->
<svg version="1.1" id="Layer_1" xmlns="http://www.w3.org/2000/svg" xmlns:xlink="http://www.w3.org/1999/xlink" x="0px" y="0px"
	 viewBox="0 0 640 480" enable-background="new 0 0 640 480" xml:space="preserve">
<g>
	<circle fill="#58595B" cx="320.2" cy="240.4" r="299.1"/>
	<g>
		<polygon fill="#FFFFFF" points="514,219.5 548.2,201.5 511.3,179.6 534.2,142.2 489.8,142.2 489.2,102.8 454,121.5 433.2,87.5 
			412.6,121 374.4,98.4 375,142.2 332.1,142.2 352.3,175.2 351.3,175.7 373.9,175.7 364.5,160.3 393.4,160.3 393,130.5 418.7,145.7 
			433.2,122.2 447.4,145.4 471.5,132.7 471.9,160.3 501.9,160.3 486.3,185.8 511.2,200.6 488.5,212.5 501.9,234.4 473,234.4 
			473.4,264.3 454.8,253.2 454.8,274.3 491.9,296.3 491.3,252.5 534.2,252.5 		"/>
		<path fill="#FFFFFF" d="M443.4,377.8V197.4c0-6.5-5.3-11.8-11.8-11.8h-290c-6.5,0-11.8,5.3-11.8,11.8v180.5c0,0.9,0.1,1.8,0.3,2.7
			H92.1v12.8h389.2v-12.8h-38.2C443.3,379.7,443.4,378.8,443.4,377.8z M419.9,275.8L406,289.7l-17.7-17.7l17.7-17.7l13.9,13.9V275.8
			z M419.9,282.8v20.9l-10.4-10.4L419.9,282.8z M419.9,353.1v7.6L406,374.7L388.3,357l17.7-17.7L419.9,353.1z M381.2,357l-17.7,17.7
			L345.7,357l17.7-17.7L381.2,357z M338.7,357L321,374.7L303.2,357l17.7-17.7L338.7,357z M235.8,374.9L218,357.2l17.6-17.6
			l17.7,17.7L235.8,374.9z M193.3,374.8l-17.7-17.8l17.6-17.6l17.8,17.7L193.3,374.8z M168.2,229.7l-14.7,14.7V215L168.2,229.7z
			 M175.6,229.3l17.7-17.7l17.7,17.7l-17.8,17.7L175.6,229.3z M153.5,257.5L168,272l-14.5,14.4V257.5z M253.3,229l-17.7,17.7
			L218,229.2l17.8-17.7L253.3,229z M321,211.7l17.7,17.7L321,247.2l-17.7-17.7L321,211.7z M381.2,229.4l-17.7,17.7l-17.7-17.7
			l17.7-17.7L381.2,229.4z M419.9,233.2L406,247.2l-17.7-17.7l17.7-17.7l13.9,13.9V233.2z M384.7,225.9l-16.8-16.8h33.6L384.7,225.9
			z M342.2,225.9l-16.8-16.8H359L342.2,225.9z M299.3,225.5l-16.4-16.4h32.8L299.3,225.5z M256.8,225.5l-16.4-16.4h32.8L256.8,225.5
			z M214.5,225.7l-16.6-16.6h33.3L214.5,225.7z M172.1,225.8l-16.7-16.7h33.4L172.1,225.8z M153.5,342l14.7,14.7l-14.7,14.7V342z
			 M196.8,378.3l17.7-17.7l17.8,17.7l-2.1,2.1H199L196.8,378.3z M239.3,378.4l17.5-17.5l17.7,17.7l-1.9,1.9h-31.2L239.3,378.4z
			 M281.6,378.6l17.8-17.7l17.7,17.7l-1.9,1.9h-31.7L281.6,378.6z M324.5,378.2l17.8-17.7l17.7,17.7l-2.3,2.3h-30.9L324.5,378.2z
			 M367,378.2l17.7-17.7l17.7,17.7l-2.3,2.3h-30.9L367,378.2z M419.9,346.1L409.8,336h-7.6l-17.5,17.5L367.3,336h-7.6l-17.5,17.5
			L324.8,336h-7.6l-17.5,17.5l-9.3-9.3c-1.8,0.9-3.6,1.6-5.5,2.3l10.9,10.9l-17.7,17.8l-17.7-17.8l8-8c-0.3,0-0.6,0-0.9,0
			c-2,0-3.9-0.1-5.8-0.3l-4.8,4.8l-7.8-7.8c-8.9-3.3-17-10-17-10l-17.6,17.6l-17.1-17c-3.1-0.2-5.9-0.7-8.4-1.4l0.3,0.3l-17.6,17.6
			l-17.7-17.8l14.5-14.5c-1-1.4-1.9-2.9-2.6-4.4l-12.3,12.3v-28.9l9.5,9.5c-0.8-2.7-1.3-5.6-1.6-8.6l-7.7-7.6l8.8-8.8
			c1.8-7.4,5.2-12.6,8.6-16.2l-17.2-17.2l17.7-17.7l17.6,17.6l-12.7,12.6c4-2.9,8.5-5,13.2-6.2l2.9-2.9l1.9,1.9
			c1.9-0.3,3.9-0.4,5.9-0.4c0.5,0,1,0,1.5,0l-5.5-5.5l17.8-17.7l17.6,17.6l-10.6,10.6c0.7,0.4,1.3,0.8,1.9,1.2
			c0.8,0.5,1.5,1.1,2.2,1.7l0.3-0.3c2.6-3.3,9.8-9.6,9.8-9.6c1.3-1,2.7-2,4.2-2.8l-0.8-0.8l17.7-17.7l10.8,10.8
			c2.6,0,5.1,0.2,7.6,0.6L260.3,229l17.7-17.7l17.7,17.7L280,244.8c2,0.5,4,1.1,6,1.8l13.7-13.7l17.7,17.7L307,261.1
			c1.1,1.2,2.2,2.5,3.1,3.9l10.8-10.8l2.5,2.5h7l-6-6l17.8-17.7l17.7,17.7l-6,6h7l2.5-2.5l2.5,2.5h7l-6-6l17.7-17.7l17.7,17.7
			L388.2,265v14l14.3,14.3l-3.3,3.3h13.1v6.4l7.7,7.7v7.6l-7.7,7.7v7l7.7-7.7V346.1z M409.5,250.7l10.4-10.4v20.9L409.5,250.7z
			 M419.9,218.6l-9.5-9.5h9.5V218.6z M153.4,379.3l18.7-18.7l17.7,17.7l-2.2,2.2h-34.5C153.3,380.1,153.3,379.7,153.4,379.3z
			 M411.8,380.5l-2.3-2.3l10.4-10.4v10.1c0,0.9,0.1,1.8,0.3,2.7H411.8z"/>
		<path fill="#FFFFFF" d="M230.1,296.4c0,20.6,16.8,37.4,37.4,37.4c20.6,0,37.4-16.8,37.4-37.4c0-20.6-16.8-37.4-37.4-37.4
			C246.9,259,230.1,275.8,230.1,296.4z M234,296.4c0-3.2,0.4-6.2,1.3-9.1h0.3l5.2,11.3l0,0c-0.3,3.4-0.4,6.6,0,10.7l-3.4,1.8
			C235.2,306.6,234,301.6,234,296.4z M273.1,283.6l8.2,14.8c-1.9,4-4,6.4-6.5,10.1h-15.7c-3-5.7-3.3-6.3-6.3-11.2l7.8-13.6
			C264.6,283.4,268.8,283.1,273.1,283.6z M257.9,328.4c-8.3-2.5-15.3-8.1-19.5-15.5l3.2-1.7c2.7,2.2,5.9,4.1,9.9,6l6.5,11.1
			L257.9,328.4z M272.3,327.5l0.2,0.2c-4.5,0.5-7.7,0.3-12.3-0.1l-6.5-11.1l4.9-5.9h16.1l6.1,7.1L272.3,327.5z M275.8,328.8
			l-1.1-0.6l8.7-9.9c4.1-2.2,6.3-3.7,9.4-6.2l2.9,2.2C291.2,321.4,284.1,326.7,275.8,328.8z M299.8,287.8c0.7,2.7,1.1,5.6,1.1,8.5
			c0,5.8-1.5,11.3-4.1,16.1l-3-2.3c0.6-4.4,0.6-7,0.4-10.2l5.3-12.1H299.8z M297.6,286.6l-5.1,11.7l-9.3-1.2l-8-14.5l3.6-8.5
			l12.5,1.6C293.8,279.6,295.4,282.5,297.6,286.6z M291,272.5l-0.2,0.9l-12.9-1.7c-2.7-2.4-5.4-4.1-9.3-5.7v-3.2
			C277.3,263.2,285.2,266.8,291,272.5z M244.5,272c5.8-5.4,13.4-8.9,21.9-9.1v3.2c-4,1.5-6.6,2.6-10.3,5.2l-11.6,1.3V272z
			 M243.7,274.9l11.8-1.3l3.2,8.9l-8,14l-8.3,0.5l-5-10.9c1.9-4.3,3.7-7.4,6.3-11.3L243.7,274.9z"/>
		<path fill="#FFFFFF" d="M221.7,313.8v-19.1h-20.9v8H212v6.2c-3.5,2.7-7.3,4-11.4,4c-4.4,0-7.8-1.5-10.2-4.6
			c-2.4-3-3.5-7.2-3.5-12.5c0-10.7,4.6-16,13.9-16c5.7,0,9.4,2.6,10.9,7.7l9.5-1.8c-2.1-9.4-8.9-14.1-20.4-14.1
			c-6.6,0-12.3,2.1-16.9,6.2c-4.6,4.1-6.9,10.3-6.9,18.5c0,7.3,2.1,13.3,6.2,18c4.1,4.7,10.2,7,18.2,7
			C209.6,321.1,216.4,318.7,221.7,313.8z"/>
		<path fill="#FFFFFF" d="M355.9,320.3l-19.2-47.9h-10.3l-18.7,47.9H318l4-10.9h19.2l4.1,10.9H355.9z M324.9,301.3l6.6-17.7
			l6.6,17.7H324.9z"/>
		<polygon fill="#FFFFFF" points="362.8,320.3 396.6,320.3 396.6,312.2 372.5,312.2 372.5,272.4 362.8,272.4 		"/>
	</g>
</g>
</svg>
