<?xml version="1.0" encoding="utf-8"?>
<!-- Generator: Adobe Illustrator 18.1.1, SVG Export Plug-In . SVG Version: 6.00 Build 0)  -->
<svg version="1.1" id="Layer_1" xmlns="http://www.w3.org/2000/svg" xmlns:xlink="http://www.w3.org/1999/xlink" x="0px" y="0px"
	 viewBox="0 0 640 480" enable-background="new 0 0 640 480" xml:space="preserve">
<g>
	<circle fill="#58595B" cx="319.5" cy="240.6" r="299.1"/>
	<g>
		<path fill="#FFFFFF" d="M543.3,185.3h-23.4v-74.1c0-7.8-6.4-14.2-14.2-14.2H133.4c-7.8,0-14.2,6.4-14.2,14.2v74.1H95.8
			c-9.8,0-17.7,8-17.7,17.7v75.2c0,9.8,8,17.7,17.7,17.7h23.4V370c0,7.8,6.4,14.2,14.2,14.2h372.3c7.8,0,14.2-6.4,14.2-14.2v-74.1
			h23.4c9.8,0,17.7-8,17.7-17.7V203C561,193.2,553,185.3,543.3,185.3z M147.5,355.8V125.4h344v230.4H147.5z M99.3,274.6v-68.1h19.9
			v68.1H99.3z M539.7,274.6h-19.8v-68.1h19.8V274.6z"/>
		<path fill="#FFFFFF" d="M428.2,256.6c5.8,0,8.7-4.4,8.7-13.2c0-8.5-2.8-12.7-8.5-12.7c-6,0-9,4.3-9,12.9
			C419.4,252.2,422.3,256.6,428.2,256.6z"/>
		<path fill="#FFFFFF" d="M370.9,231.3c-3.1,0-5.3,2.5-6.9,7.4c-1.5,4.9-2.3,15.2-2.3,30.8c0,15.6,0.8,25.8,2.4,30.6
			c1.6,4.9,3.8,7.3,6.8,7.3c3.4,0,5.7-2.8,7.1-8.3c1.4-5.5,2.1-15.4,2.1-29.6c0-14.5-0.7-24.5-2.2-29.9
			C376.4,234.1,374.1,231.3,370.9,231.3z"/>
		<path fill="#FFFFFF" d="M428.4,273.2c-3.3,0-5.8,1.6-7.6,4.7c-1.8,3.2-2.7,7.1-2.7,11.9c0,12,3.5,18.1,10.4,18.1
			c6.8,0,10.1-5.9,10.1-17.8C438.6,278.8,435.2,273.2,428.4,273.2z"/>
		<path fill="#FFFFFF" d="M375.3,182.9c2.5,0,4.3-0.9,5.5-2.6c1.2-1.8,1.8-4,1.8-6.6c0-6.1-2.5-9.1-7.4-9.1c-4.9,0-7.4,3.1-7.4,9.2
			c0,2.8,0.6,5,1.9,6.7C371.1,182.1,372.9,182.9,375.3,182.9z"/>
		<path fill="#FFFFFF" d="M480.5,136.1h-322v209h322V136.1z M417.3,160.5h21.1v4.5h-7.8v22.1h-5.4V165h-7.9V160.5z M365.8,163.8
			c2.3-2.5,5.4-3.7,9.4-3.7c4.6,0,7.9,1.4,9.9,4.1c2,2.7,3,6,3,9.7c0,4.2-1.1,7.5-3.4,10c-2.3,2.5-5.4,3.7-9.4,3.7
			c-4.1,0-7.2-1.2-9.5-3.6c-2.3-2.4-3.4-5.8-3.4-10C362.4,169.6,363.5,166.3,365.8,163.8z M224.4,322.7h-14.2v-77.9
			c-5.2,6.9-11.2,12.1-18.1,15.5v-18.7c10.5-5.5,17.5-14.6,20.8-27.3h11.5V322.7z M230.4,187.1H225v-26.6h5.4V187.1z M240.6,187.1
			h-5v-26.6h5.2l10.9,17.8v-17.8h4.9v26.6h-5.3l-10.8-17.4V187.1z M293.1,303.5v19.2h-49.5c0.4-5.9,1.7-12,4-18.5
			c2.3-6.5,7.7-15.5,16.3-27c10-13.4,15-23.9,15-31.4c0-9.6-3.2-14.3-9.5-14.3c-6.2,0-9.5,5.6-10.1,16.9l-14-2.1
			c1.6-21.3,9.7-31.9,24.4-31.9c7,0,12.6,2.7,16.9,8.1c4.3,5.4,6.5,12.7,6.5,21.9c0,13-5.4,26.5-16.1,40.5c-6.6,9-10.6,15.2-12,18.7
			H293.1z M370.9,324.5c-16,0-24-18.4-24-55.3c0-36.7,8-55,24-55c16,0,24,18.4,24,55.3C394.9,306.2,386.9,324.5,370.9,324.5z
			 M396.5,186.1c-1.6-0.9-2.7-2.2-3.3-3.7c-0.6-1.5-0.8-4.1-0.8-7.8v-14.2h5.3v14.4c0,2.1,0.1,3.7,0.2,4.6c0.1,1,0.7,1.8,1.5,2.4
			c0.9,0.6,2.1,1,3.6,1c2,0,3.3-0.5,4-1.4c0.7-0.9,1-3,1-6.3v-14.7h5.3v13.9c0,3.3-0.2,5.7-0.6,7.3c-0.4,1.6-1.4,3-2.9,4.1
			c-1.6,1.1-3.8,1.7-6.7,1.7C400.4,187.5,398.1,187.1,396.5,186.1z M446,315.5c-4.4,6-10.1,9-17.1,9c-6.5,0-12.3-2.7-17.3-8
			c-5-5.3-7.5-13.6-7.5-24.9c0-13.1,4.1-22.2,12.3-27.3c-6.9-4.3-10.4-11.8-10.4-22.5c0-8.6,2-15.4,6.1-20.3c4-4.9,9.4-7.4,16.2-7.4
			c5.8,0,10.9,2.2,15.4,6.7c4.5,4.5,6.7,11.5,6.7,21c0,10.7-3.4,18.1-10.3,22.5c8.3,4.9,12.5,13.8,12.5,26.6
			C452.5,301.3,450.3,309.5,446,315.5z"/>
	</g>
</g>
</svg>
