<?xml version="1.0" encoding="utf-8"?>
<!-- Generator: Adobe Illustrator 18.1.1, SVG Export Plug-In . SVG Version: 6.00 Build 0)  -->
<svg version="1.1" id="Layer_1" xmlns="http://www.w3.org/2000/svg" xmlns:xlink="http://www.w3.org/1999/xlink" x="0px" y="0px"
	 viewBox="0 0 640 480" enable-background="new 0 0 640 480" xml:space="preserve">
<g>
	<circle fill="#58595B" cx="319.2" cy="240.3" r="299.1"/>
	<path fill="#FFFFFF" d="M185,425.1h279.3V54H185V425.1z M210.4,245.4h69.5c2.9,21.6,21.9,38.4,44.8,38.4
		c22.9,0,41.9-16.8,44.8-38.4H439v155h-46.8v-44.3H257.2v44.3h-46.8V245.4z M269,78.8h111.2v32.7H269V78.8z M257.2,78.8V123h134.9
		V78.8H439v155h-69.5c-2.9-21.6-21.9-38.4-44.8-38.4c-22.9,0-41.9,16.8-44.8,38.4h-69.5v-155H257.2z M357.5,245.4
		c-2.8,15.2-16.4,26.8-32.8,26.8s-30-11.6-32.8-26.8H357.5z M291.9,233.8c2.8-15.2,16.4-26.8,32.8-26.8s30,11.6,32.8,26.8H291.9z
		 M380.3,400.3H269v-32.7h111.2V400.3z"/>
</g>
</svg>
