<?xml version="1.0" encoding="utf-8"?>
<!-- Generator: Adobe Illustrator 18.1.1, SVG Export Plug-In . SVG Version: 6.00 Build 0)  -->
<svg version="1.1" id="Layer_1" xmlns="http://www.w3.org/2000/svg" xmlns:xlink="http://www.w3.org/1999/xlink" x="0px" y="0px"
	 viewBox="0 0 640 480" enable-background="new 0 0 640 480" xml:space="preserve">
<g>
	<circle fill="#58595B" cx="319.3" cy="240.4" r="299.1"/>
	<g>
		<polygon fill="#FFFFFF" points="508.7,220.1 542,202.5 506.1,181.2 528.4,144.8 485.1,144.8 484.6,106.4 450.3,124.6 430,91.4 
			409.9,124.2 372.7,102.1 373.3,144.8 331.6,144.8 351.2,176.9 350.2,177.4 372.2,177.4 363.1,162.4 391.2,162.4 390.8,133.3 
			415.9,148.2 430,125.2 443.8,147.9 467.3,135.5 467.7,162.4 496.9,162.4 481.7,187.2 505.9,201.6 483.9,213.3 496.9,234.5 
			468.7,234.5 469.1,263.6 451,252.9 451,273.4 487.2,294.9 486.6,252.2 528.4,252.2 		"/>
		<path fill="#FFFFFF" d="M438.8,374.2V198.5c0-6.3-5.1-11.4-11.4-11.4H145c-6.3,0-11.5,5.1-11.5,11.4v175.8c0,0.9,0.1,1.8,0.3,2.6
			H96.7v12.4h379v-12.4h-37.2C438.7,376,438.8,375.1,438.8,374.2z M282.3,375l10.4-10.4c-2.2,0.2-4.4,0.3-6.6,0.3
			c-0.2,0-0.3,0-0.5,0l-6.7,6.7l-8.4-8.4c-3.3-0.7-6.5-1.7-9.7-2.8l14.7,14.7l-1.9,1.9h-30.4l-2.1-2.1l15.9-15.9
			c-1.6-0.7-3.1-1.4-4.6-2.2l-14.7,14.7l-17.3-17.2l12.4-12.4c-1.1-1.2-2.2-2.4-3.2-3.6L217,350.7l-17.3-17.2l17.2-17.2l0.8,0.8
			c-1.2-3.1-2.1-6.4-2.8-9.7l-15.7-15.7l15.7-15.7c0.7-3.3,1.7-6.5,2.8-9.7l-0.8,0.8l-17.2-17.2l17.3-17.2l12.7,12.7
			c1-1.2,2.1-2.5,3.2-3.6l-12.4-12.4l17.3-17.2l14.7,14.7c1.5-0.8,3.1-1.5,4.6-2.2l-14.9-14.9h32l-13.4,13.4
			c3.1-1.2,6.4-2.1,9.7-2.8l8.4-8.4l6.7,6.7c0.2,0,0.3,0,0.5,0c2.2,0,4.4,0.1,6.6,0.3l-9.1-9.1h32l-11.2,11.2c2,0.5,3.9,1.1,5.8,1.8
			l10.4-10.4l17.3,17.3l-5.6,5.6c1.3,1,2.5,2.1,3.6,3.2l5.4-5.4l17.3,17.3l-7.7,7.7c0.8,1.5,1.5,3.1,2.2,4.6l8.9-8.9l17.3,17.3
			l-17.3,17.3l-3.2-3.2c0.2,2.2,0.3,4.4,0.3,6.6c0,2.2-0.1,4.4-0.3,6.6l3.2-3.2l17.3,17.3l-17.3,17.3l-8.9-8.9
			c-0.7,1.6-1.4,3.1-2.2,4.6l7.7,7.7l-17.3,17.3l-5.4-5.4c-1.2,1.1-2.4,2.2-3.6,3.2l5.6,5.6l-17.3,17.3l-10.4-10.4
			c-1.9,0.7-3.8,1.3-5.8,1.8l12.5,12.5l-1.9,1.9h-30.9L282.3,375z M156.4,327.7v-30.5l15.3,15.2L156.4,327.7z M192.5,250.5
			l-17.3,17.2L158,250.7l17.3-17.3L192.5,250.5z M171.7,271.2l-15.3,15.2v-30.5L171.7,271.2z M171.9,230l-15.5,15.5v-31L171.9,230z
			 M175.1,315.8l17.3,17.2l-17.2,17.1L158,333L175.1,315.8z M196.3,336.9l17.3,17.2l-17.2,17.2L179.1,354L196.3,336.9z M178.5,312.4
			l17.2-17.2l17.3,17.3l-17.2,17.2L178.5,312.4z M175.1,309l-17.3-17.2l17.3-17.2l17.2,17.2L175.1,309z M178.5,271.2l17.3-17.2
			l17.2,17.2l-17.3,17.3L178.5,271.2z M179.1,229.6l17.3-17.3l17.2,17.2l-17.3,17.2L179.1,229.6z M217,226.1l-16.2-16.2h32.4
			L217,226.1z M175.7,226.2l-16.2-16.2h32.5L175.7,226.2z M156.4,338.2l15.5,15.5l-15.5,15.5V338.2z M175.7,357.5l17.3,17.3
			l-2.1,2.1h-34.6L175.7,357.5z M199.8,374.7l17.2-17.2l17.3,17.2l-2.1,2.1h-30.3L199.8,374.7z M415.9,234.6L403.5,247l-17.3-17.3
			l17.3-17.3l12.4,12.4V234.6z M382.8,350.5l-17.3-17.3l17.3-17.3l17.3,17.3L382.8,350.5z M379.4,353.9l-17.3,17.3l-17.3-17.3
			l17.3-17.3L379.4,353.9z M386.2,312.5l17.3-17.3l12.4,12.4v9.8l-12.4,12.4L386.2,312.5z M400.1,291.8l-17.3,17.3l-17.3-17.3
			l17.3-17.3L400.1,291.8z M406.9,291.8l9-9v18L406.9,291.8z M415.9,276l-12.4,12.4l-17.3-17.3l17.3-17.3l12.4,12.4V276z
			 M382.8,267.7l-17.3-17.3l17.3-17.3l17.3,17.3L382.8,267.7z M362.1,247l-17.3-17.3l17.3-17.3l17.3,17.3L362.1,247z M386.2,353.9
			l17.3-17.3l12.4,12.4v9.8l-12.4,12.4L386.2,353.9z M382.8,226.3l-16.4-16.4h32.7L382.8,226.3z M341.4,226.3l-16.4-16.4h32.7
			L341.4,226.3z M324.1,374.6l17.3-17.3l17.3,17.3l-2.2,2.2h-30.1L324.1,374.6z M365.5,374.6l17.3-17.3l17.3,17.3l-2.2,2.2h-30.1
			L365.5,374.6z M415.9,342.2l-9-9l9-9V342.2z M406.9,250.4l9-9v18L406.9,250.4z M415.9,218l-8.1-8.1h8.1V218z M409.2,376.9
			l-2.2-2.2l9-9v8.6c0,0.9,0.1,1.8,0.3,2.6H409.2z"/>
		<path fill="#FFFFFF" d="M345.5,291.8c0-32.7-26.6-59.3-59.3-59.3c-32.7,0-59.3,26.6-59.3,59.3c0,32.7,26.6,59.3,59.3,59.3
			C318.9,351.1,345.5,324.5,345.5,291.8z M271.3,342.5l-0.3,0.2c-13.2-3.9-24.2-12.9-30.9-24.6l5.1-2.8c4.3,3.5,9.4,6.5,15.8,9.5
			L271.3,342.5z M233,291.8c0-5,0.7-9.9,2-14.5h0.5l8.2,17.9l0.1,0c-0.5,5.4-0.6,10.5,0,17l-5.4,2.9C235,308,233,300.1,233,291.8z
			 M284.4,243.8c-6.3,2.4-10.4,4.2-16.3,8.2l-18.4,2.1v-0.8c9.1-8.6,21.3-14.1,34.7-14.5V243.8z M297.6,342.4l13.8-15.7
			c6.6-3.5,10-5.8,15-9.8l4.6,3.5c-7.2,11.2-18.4,19.5-31.6,22.9L297.6,342.4z M262.8,293.3l12.4-21.6c6.3-0.5,13-1,19.9-0.2
			l13,23.5c-3.1,6.3-6.3,10.2-10.4,16h-24.9C268.2,302,267.7,301,262.8,293.3z M334,276.3l-8.1,18.6l-14.8-1.8l-12.7-23l5.6-13.6
			l19.9,2.6C328,265.2,330.6,269.8,334,276.3z M328.6,297.5l8.4-19.2h0.6c1.1,4.3,1.8,8.9,1.8,13.5c0,9.2-2.4,17.9-6.5,25.5
			l-4.8-3.6C328.9,306.8,328.9,302.6,328.6,297.5z M323.5,254l-0.3,1.4l-20.5-2.7c-4.3-3.8-8.5-6.5-14.8-9v-5.1
			C301.8,239.2,314.3,244.9,323.5,254z M248.5,257.7l18.8-2.1l5.1,14.1l-12.8,22.2l-13.1,0.7l-7.9-17.3c3.1-6.8,5.8-11.8,10-18
			L248.5,257.7z M264.4,323.9l7.8-9.4h25.6l9.7,11.3c-15,17.1-13.5,15.3-14,15.9c-7.2,0.8-11.5,0.3-18.8-0.2L264.4,323.9z"/>
	</g>
</g>
</svg>
