<?xml version="1.0" encoding="utf-8"?>
<!-- Generator: Adobe Illustrator 18.1.1, SVG Export Plug-In . SVG Version: 6.00 Build 0)  -->
<svg version="1.1" id="Layer_1" xmlns="http://www.w3.org/2000/svg" xmlns:xlink="http://www.w3.org/1999/xlink" x="0px" y="0px"
	 viewBox="0 0 640 480" enable-background="new 0 0 640 480" xml:space="preserve">
<g>
	<circle fill="#58595B" cx="319.2" cy="240.2" r="299.1"/>
	<g>
		<path fill="#FFFFFF" d="M508.1,103.2c-5.3-5-12.3-7.8-19.7-7.8H151.2c-14.8,0-26.8,11.7-26.8,26.2V368c0,7.3,6,13.3,13.3,13.3
			c6.5,0,7.3-0.9,28.3-25.2c5.4-6.2,12.1-14,20.6-23.7h267.7c9.3,10.7,16.2,18.9,21.9,25.5c18.3,21.6,19.8,23.4,26.6,23.4h0
			c7.3,0,13.3-5.9,13.3-13.2l0.5-245.2C516.6,115.5,513.5,108.3,508.1,103.2z M446.9,168.2v17.4l-8.8-8.7L446.9,168.2z M209.6,170.3
			l-8.7-8.6h17.4L209.6,170.3z M254,170.3l-8.7-8.6h17.4L254,170.3z M298.3,170.3l-8.7-8.6H307L298.3,170.3z M342.7,170.3l-8.7-8.6
			h17.4L342.7,170.3z M387.1,170.3l-8.7-8.6h17.4L387.1,170.3z M409.2,192.2l-15.5-15.3l15.4-15.2h0.2l15.4,15.2L409.2,192.2z
			 M431.4,227.4l15.5,15.3L431.4,258l-15.5-15.3L431.4,227.4z M431.4,271.2l15.5,15.3l-15.5,15.3l-15.5-15.3L431.4,271.2z
			 M209.6,258l-15.5-15.3l15.5-15.3l15.5,15.3L209.6,258z M209.6,214.1l-15.5-15.3l15.5-15.3l15.5,15.3L209.6,214.1z M409.2,249.3
			l15.5,15.3l-15.5,15.3l-15.5-15.3L409.2,249.3z M247.3,264.6l-15.5,15.3l-15.5-15.3l15.5-15.3L247.3,264.6z M231.8,236.1
			l-15.5-15.3l15.5-15.3l15.5,15.3L231.8,236.1z M269.4,242.7L254,258l-15.5-15.3l15.4-15.3L269.4,242.7z M276.1,236.1l-15.5-15.3
			l15.5-15.3l15.5,15.3L276.1,236.1z M276.1,249.3l15.5,15.3l-15.4,15.3l-15.5-15.3L276.1,249.3z M313.8,242.7L298.3,258l-15.5-15.3
			l15.5-15.3L313.8,242.7z M320.5,236.1L305,220.8l15.5-15.3l15.5,15.3L320.5,236.1z M320.5,249.3l15.5,15.3L320.5,280L305,264.6
			L320.5,249.3z M358.2,242.7L342.7,258l-15.5-15.3l15.5-15.3L358.2,242.7z M364.9,236.1l-15.5-15.3l15.5-15.3l15.5,15.3
			L364.9,236.1z M364.9,249.3l15.4,15.3l-15.5,15.3l-15.5-15.3L364.9,249.3z M402.5,242.7L387,258l-15.4-15.3l15.5-15.3L402.5,242.7
			z M409.2,205.5l15.4,15.3l-15.5,15.3l-15.5-15.3L409.2,205.5z M387.1,214.2l-15.5-15.3l15.5-15.3l15.5,15.3L387.1,214.2z
			 M342.7,214.2l-15.5-15.3l15.5-15.3l15.5,15.3L342.7,214.2z M298.3,214.2l-15.5-15.3l15.5-15.3l15.5,15.3L298.3,214.2z M254,214.2
			l-15.5-15.3l15.5-15.3l15.5,15.3L254,214.2z M254,271.2l15.5,15.3L254,301.9l-15.5-15.3L254,271.2z M298.3,271.3l15.5,15.3
			l-15.4,15.3l-15.5-15.3L298.3,271.3z M342.7,271.3l15.4,15.3l-15.5,15.3l-15.4-15.3L342.7,271.3z M387,271.2l15.5,15.3L387,301.9
			l-15.5-15.3L387,271.2z M364.9,192.2l-15.5-15.3l15.4-15.2h0.2l15.4,15.2L364.9,192.2z M320.5,192.2L305,176.9l15.4-15.2h0.2
			l15.4,15.2L320.5,192.2z M276.1,192.2l-15.5-15.3l15.4-15.2h0.2l15.4,15.2L276.1,192.2z M231.8,192.2l-15.5-15.3l15.4-15.2h0.2
			l15.4,15.2L231.8,192.2z M194.1,286.5l15.5-15.3l15.5,15.3l-15.5,15.3L194.1,286.5z M231.8,293.2l15.5,15.3l-5.9,5.9h-19.1
			l-5.9-5.9L231.8,293.2z M276.2,293.2l15.5,15.3l-5.9,5.9h-19.1l-5.9-5.9L276.2,293.2z M320.5,293.2l15.4,15.3l-5.9,5.9h-19
			l-5.9-5.9L320.5,293.2z M364.8,293.2l15.5,15.3l-5.9,5.9h-19.1l-5.9-5.9L364.8,293.2z M409.2,293.2l15.5,15.3l-5.9,5.9h-19.1
			l-5.9-5.9L409.2,293.2z M431.4,183.5l15.4,15.3l-15.5,15.3l-15.4-15.3L431.4,183.5z M422.7,161.7h17.4l-8.7,8.6L422.7,161.7z
			 M194.1,185.6v-17.4l8.8,8.7L194.1,185.6z M194.1,229.5V212l8.8,8.7L194.1,229.5z M194.1,273.3v-17.5l8.8,8.7L194.1,273.3z
			 M202.9,308.5l-5.9,5.9h-2.9v-14.6L202.9,308.5z M446.9,299.8v14.6H444l-5.9-5.9L446.9,299.8z M446.9,255.9v17.5l-8.8-8.7
			L446.9,255.9z M446.9,212v17.5l-8.8-8.7L446.9,212z M478.2,121.9l-22.9,21.8H185.7l-22.9-21.8H478.2z M176.1,153.7v169.1
			L151,351.5V129.8L176.1,153.7z M464.9,322.9V153.7l25.1-23.9l-0.5,221.5L464.9,322.9z"/>
	</g>
</g>
</svg>
