<?xml version="1.0" encoding="utf-8"?>
<!-- Generator: Adobe Illustrator 18.1.1, SVG Export Plug-In . SVG Version: 6.00 Build 0)  -->
<svg version="1.1" id="Layer_1" xmlns="http://www.w3.org/2000/svg" xmlns:xlink="http://www.w3.org/1999/xlink" x="0px" y="0px"
	 viewBox="0 0 640 480" enable-background="new 0 0 640 480" xml:space="preserve">
<g>
	<circle fill="#58595B" cx="319.3" cy="240.3" r="299.1"/>
	<g>
		<path fill="#FFFFFF" d="M482.2,390.2c-1-42.7-5.3-100.9-8.1-109.2c-0.1-0.2-0.1-0.5-0.2-0.8c-0.8-4-2.9-13.6-13.4-23.1
			c-5.1-4.6-12.2-9.1-22-13c-4.8-1.9-9.9-3.3-15.2-4.5c-5-1.1-10.1-2.1-15.1-3c-3-0.5-6-1.1-9-1.7l-2.9-0.6c0.4,1.5,0.6,3.1,0.6,4.7
			l0.3,24.2c0,2.8-1.5,5.3-3.9,6.6c-1.1,0.5-2.2,0.8-3.4,0.8c-1.5,0-3-0.5-4.3-1.4l-16.3-11.6c-2.2,3.1-4.6,6.2-7.3,9v161.7
			c-9.1,0.9-17.3,1.4-24,1.8v-144c-8.3,4.9-14.5,7.2-14.9,7.3l-1.9,0.7l-2,0.7l-2-0.8l-1.9-0.8c-0.6-0.2-6.5-2.7-14.5-7.8v144.7
			c-6.7-0.3-14.9-0.9-24-1.7V265.6c-2.3-2.6-4.6-5.4-6.8-8.3l-16.7,12c-1.3,0.9-2.8,1.4-4.3,1.4c-1.2,0-2.3-0.3-3.4-0.8
			c-2.5-1.3-4-3.8-3.9-6.6l0.3-24.3c0-1.6,0.2-3.1,0.6-4.7c-1,0.2-2,0.4-3,0.6c-3,0.6-6,1.2-8.9,1.7c-5,0.9-10.1,1.9-15.1,3
			c-5.2,1.2-10.3,2.6-15.1,4.5c-9,3.5-16.4,7.9-22.1,13.1c-7,6.4-11.5,14.1-13.4,22.9c-0.1,0.3-0.1,0.6-0.1,0.7
			c-2.8,8.3-7.2,66.6-8.2,109.3c-0.1,6-0.4,18.4,21,27.8c0.2,0.1,0.5,0.2,0.7,0.3c11.3,4.9,24.1,8.7,37.2,11.8
			c8,1.9,16.1,3.4,24,4.7c13.1,2.1,25.9,3.6,37.2,4.6c9.1,0.8,17.3,1.3,24,1.7c11.3,0.6,18.4,0.6,18.7,0.6c0.2,0,7.3,0,18.6-0.6
			c6.7-0.3,14.9-0.9,24-1.7c11.3-1.1,24-2.6,37.2-4.8c7.9-1.3,16-2.9,24-4.8c12.9-3,25.6-6.8,37.2-11.5c0.2-0.1,0.4-0.2,0.7-0.3
			l0.1-0.1C482.6,408.6,482.3,396.1,482.2,390.2z M167.3,390.4c1.1-48.2,5.8-100.7,7.6-106c0.2-0.6,0.3-1.2,0.5-1.9
			c0.3-1.7,1-4.5,2.8-8v131.9C167.1,400.5,167.2,394.9,167.3,390.4z M215.4,419V250.8c5.4-1.3,11.2-2.4,17.1-3.5
			c2.3-0.4,4.6-0.9,6.9-1.3v177.9C231.4,422.5,223.3,420.9,215.4,419z M399.2,423.5V245.9c2.4,0.5,4.7,0.9,7,1.3
			c5.9,1.1,11.6,2.2,17,3.5v167.8C415.2,420.5,407.1,422.2,399.2,423.5z M460.4,406.3v-132c1.9,3.5,2.5,6.4,2.8,8.1
			c0.2,0.8,0.3,1.3,0.5,1.9c1.8,5.4,6.5,57.9,7.6,106C471.5,395,471.6,400.5,460.4,406.3z"/>
		<path fill="#FFFFFF" d="M337.5,260L337.5,260l0.4-0.3v-0.2c6.4-5.3,11.6-11.8,15.5-19.1c4.2-7.6,6.7-16.1,7.3-24.8
			c0-0.3,0.1-0.6,0.1-0.9c0-0.1,0-0.3-0.1-0.4c0-0.2,0-0.3,0.1-0.5c-0.2-1.1-0.3-2.1-0.4-3.2c-0.5-5.1-0.8-10.2-1.2-15.3
			c3.7-6.5,7.6-14.5,11.6-24.2c3.1-7.4,5.6-14.6,7.7-21.4c0.6,0.4,1.4,0.7,2.2,0.8l2.1,0.2c0.1,0,0.3,0,0.4,0c2.4,0,4.4-1.9,4.6-5
			l2.3-28.3c0-0.5,0-1-0.2-1.5l0.2-2.9c0.1-1.3-0.6-2.8-1.7-3.7l10.2-26.4c1.6-4,1-8.6-1.5-12.1l-25.4-36.2
			c-2.2-3.1-5.6-5.2-9.5-5.7c-12.4-1.7-40.5-5.6-54.5-7.7c-3.3-0.5-6.7,0.2-9.5,2l-16.7,10.4l-12-0.1c-5.2,0-10,2.8-12.4,7.2
			c-3.7,7-9.1,17.7-12,23.5c-1.3,2.6-1.7,5.6-1.1,8.4c1.7,8.1,5.3,25.6,7.4,35.9c-1.8,0.8-3,2.7-2.9,4.5l0.2,2.9
			c-0.2,0.5-0.3,1-0.2,1.6l2.3,28.3c0.2,3.1,2.3,5,4.6,5c0.1,0,0.3,0,0.4,0l2.1-0.2c0.8-0.1,1.5-0.4,2.2-0.8
			c2,6.8,4.5,13.9,7.7,21.4c4,9.7,8,17.6,11.6,24.2c-0.4,5.1-0.7,10.2-1.2,15.3c-0.1,1.3-0.3,2.6-0.5,3.9c0,0.1,0,0.3,0,0.4
			c0,0.1,0,0.1,0,0.2c0,0.1,0,0.2-0.1,0.3c0,0.1,0,0.3,0,0.4c0.4,8.7,3.1,17.2,7.5,24.7c1.6,2.8,3.5,5.5,5.6,8.1
			c3.1,3.7,6.4,7,9.7,9.8v0.2c7.4,6.4,14.7,10.7,18.9,12.8C323.6,269.4,330.5,265.7,337.5,260z"/>
		<path fill="#FFFFFF" d="M247.4,239l-0.3,24.3c0,0.7,0.4,1.3,1,1.6c0.3,0.1,0.5,0.2,0.8,0.2c0.4,0,0.7-0.1,1-0.3l21.4-15.4v0
			c16.3,26.3,44.3,38.1,45.9,38.8l1.9,0.8l1.9-0.7c0.5-0.2,13.4-4.9,26.9-15.9c8.1-6.7,14.8-14.3,19.7-22.6l21,15
			c0.3,0.2,0.7,0.3,1,0.3c0.3,0,0.6-0.1,0.8-0.2c0.6-0.3,1-0.9,1-1.6l-0.3-24.2c-0.1-4.7-2.2-9.2-5.8-12.3l-15-12.6
			c-0.6-0.5-1.3-0.8-2.1-0.8h-0.2c-0.9,0-1.6,0.7-1.7,1.6c-1.1,19-10.1,36.7-24.8,48.9c0,0,0,0,0,0c-9.2,7.6-18.3,11.9-22.1,13.6
			c-5.3-2.5-20.7-10.8-32.9-25.3c-8.7-10.5-13.8-23.5-14.4-37.1c0-0.9-0.8-1.7-1.8-1.7h0c-0.8,0-1.6,0.3-2.2,0.8l-14.9,12.6
			C249.6,229.9,247.5,234.3,247.4,239z"/>
	</g>
</g>
</svg>
