<?xml version="1.0" encoding="utf-8"?>
<!-- Generator: Adobe Illustrator 18.1.1, SVG Export Plug-In . SVG Version: 6.00 Build 0)  -->
<svg version="1.1" id="Layer_1" xmlns="http://www.w3.org/2000/svg" xmlns:xlink="http://www.w3.org/1999/xlink" x="0px" y="0px"
	 viewBox="0 0 612 792" enable-background="new 0 0 612 792" xml:space="preserve">
<g>
	<circle fill="#01A79D" cx="305.6" cy="396.2" r="704"/>
	<g>
		<path fill="#FFFFFF" d="M370.1,433.8c-1.3,1.4-2.6,2.8-3.9,4.2C367.5,436.6,368.8,435.2,370.1,433.8z"/>
		<path fill="#FFFFFF" d="M226.8,414.4c-1-1.4-2-2.7-3-4.1C224.8,411.7,225.8,413.1,226.8,414.4z"/>
		<path fill="#FFFFFF" d="M230.7,419.4c-1.1-1.3-2.1-2.6-3.1-3.9C228.6,416.8,229.7,418.1,230.7,419.4z"/>
		<path fill="#FFFFFF" d="M334.9,463.2c-0.6,0.4-1.3,0.9-1.9,1.3C333.6,464.1,334.2,463.7,334.9,463.2z"/>
		<path fill="#FFFFFF" d="M376.1,426.9c-1.4,1.7-2.9,3.5-4.4,5.2C373.2,430.4,374.6,428.7,376.1,426.9z"/>
		<path fill="#FFFFFF" d="M363.3,440.8c-1,1-2,2-3,2.9C361.3,442.7,362.3,441.7,363.3,440.8z"/>
		<path fill="#FFFFFF" d="M381.4,420c-1.5,2-3,4-4.6,6C378.4,424,379.9,422,381.4,420z"/>
		<path fill="#FFFFFF" d="M216.8,399.2c-0.8-1.4-1.6-2.8-2.4-4.2C215.2,396.4,216,397.8,216.8,399.2z"/>
		<path fill="#FFFFFF" d="M381.7,419.7c5.7-7.8,10.7-16,15-24.7c-0.7,1.5-1.5,2.9-2.2,4.4C390.7,406.4,386.4,413.2,381.7,419.7z"/>
		<path fill="#FFFFFF" d="M223.4,409.7c-1.1-1.6-2.1-3.2-3.2-4.8C221.2,406.5,222.3,408.1,223.4,409.7z"/>
		<path fill="#FFFFFF" d="M339.4,460.2c4.4-3.1,9-6.5,13.5-10.2h0l1.1-0.9l-1.2,1C348.3,453.8,343.8,457.1,339.4,460.2z"/>
		<path fill="#FFFFFF" d="M244.1,434.2c23.3,23.3,48.7,38.4,62,45.4C292.9,472.6,267.4,457.5,244.1,434.2z"/>
		<path fill="#FFFFFF" d="M220.1,404.7c-1.1-1.7-2.2-3.5-3.2-5.3C217.9,401.2,219,402.9,220.1,404.7z"/>
		<path fill="#FFFFFF" d="M464.4,614.5c0,48.1,50.3,68.9,50.3,68.9s50.3-18,50.3-68.9v-33.2H464.4V614.5z"/>
		<path fill="#FFFFFF" d="M730.6,790.1c-2.6-111.4-13.9-263.4-21.3-284.9c-0.1-0.5-0.3-1.2-0.5-2.1c-3.3-15.6-13.3-63-92.6-94
			c-24.4-9.5-52.1-14.7-78.9-19.7c-10.1-1.9-20.5-3.8-30.7-6c0.9,4,1.4,8,1.5,12.2l0.2,17c8,1.6,16,3.1,23.8,4.6
			c26.7,5,51.9,9.7,73.8,18.2c65.1,25.5,72.8,61.7,75.3,73.6c0.4,2,0.7,3.5,1.3,5c4.8,14,17,151,19.9,276.8
			c0.2,9.4,0.4,20.5-14.2,32.3c-5.4-169.7-14-276.3-19.9-293.1c-0.1-0.5-0.2-1.1-0.4-1.8c-3-13.8-12-55.8-83.2-83.3
			c-21.9-8.4-46.8-13-70.9-17.4c-1.7-0.3-3.5-0.7-5.3-1l0.3,25.5c0.1,0,0.2,0,0.3,0.1c24,4.4,46.7,8.6,66.3,16.2
			c58.5,22.6,65.4,54.7,67.6,65.2c0.4,1.7,0.7,3.1,1.1,4.5c3.9,11.3,13.4,113.3,19,299.5c-143.6,58-355.6,59-357.7,59
			c-2.2,0-225.2-1-358.7-59.4c6.7-186,16.1-287.8,20-299.1c0.5-1.4,0.8-2.7,1.1-4.5c2.3-10.5,9.1-42.6,67.6-65.2
			c19.7-7.6,42.3-11.7,66.3-16.2c0.1,0,0.2,0,0.3-0.1l0.3-25.5c-1.7,0.3-3.5,0.7-5.2,1c-24.1,4.4-49,9-70.9,17.4
			c-47.3,18.2-75.3,46.3-83.2,83.3c-0.2,0.7-0.3,1.4-0.3,1.6c-5.9,17-14.5,123.4-20.8,292.6c-13.7-11.6-13.5-22.4-13.3-31.6
			C-88.4,664.9-76.2,528-71.4,514c0.5-1.5,0.8-3.1,1.3-5c2.5-11.9,10.1-48.1,75.3-73.6c21.9-8.6,47.1-13.3,73.8-18.2
			c7.8-1.5,15.8-3,23.8-4.6l0.2-17.1c0-4.1,0.5-8.1,1.5-12.1c-10.2,2.2-20.6,4.1-30.7,6c-26.8,5-54.6,10.2-78.9,19.7
			c-52.6,20.6-83.8,52.2-92.6,94c-0.2,0.8-0.3,1.5-0.4,1.8c-7.4,21.8-18.8,173.7-21.3,285.2c-0.4,15.6-1.1,48,54.7,72.5
			c139.7,61.2,368,61.9,370.3,61.9c2.2,0,220.5-0.7,370-61.7l0.3-0.1C731.7,838,731,805.7,730.6,790.1z"/>
		<path fill="#FFFFFF" d="M216.8,399.2c0,0.1,0.1,0.1,0.1,0.2c1,1.8,2.1,3.6,3.2,5.3c0,0.1,0.1,0.1,0.1,0.2c1,1.6,2.1,3.2,3.2,4.8
			c0.1,0.2,0.3,0.4,0.4,0.6c1,1.4,2,2.8,3,4.1c0.3,0.4,0.5,0.7,0.8,1.1c1,1.3,2.1,2.6,3.1,3.9c0.3,0.3,0.5,0.6,0.8,1
			c4.1,4.9,8.3,9.5,12.6,13.8c23.3,23.3,48.7,38.4,62,45.4c6.7-3.2,16.2-8.1,26.8-15c0.6-0.4,1.3-0.9,1.9-1.3c1.5-1,3-2,4.5-3
			c4.4-3.1,8.9-6.4,13.4-10.1l1.2-1c2.1-1.8,4.2-3.6,6.2-5.4c1-0.9,2-1.9,3-2.9c1-0.9,1.9-1.8,2.9-2.8c1.3-1.4,2.6-2.8,3.9-4.2
			c0.5-0.6,1.1-1.1,1.6-1.7c1.5-1.7,3-3.4,4.4-5.2c0.3-0.3,0.5-0.6,0.8-0.9c1.6-1.9,3.1-3.9,4.6-6c0.1-0.1,0.2-0.2,0.3-0.4
			c4.7-6.5,9-13.3,12.7-20.3c0.8-1.4,1.5-2.9,2.2-4.4c9.6-19.5,15.4-41,16.7-63.1c0-0.3,0.1-0.6,0.1-0.9c0,0,0,0,0,0
			c0.1-0.4,0.1-0.9,0.2-1.3c-0.5-2.7-0.8-5.5-1.1-8.4c-1.2-13.3-2.2-26.6-3.1-39.9c9.6-17.1,19.8-37.8,30.3-63.1
			c8.1-19.4,14.7-38,20-55.7c1.6,1.1,3.6,1.9,5.6,2.1l5.5,0.5c0.3,0,0.7,0,1,0c6.2,0,11.5-5.1,12.1-13.1l6-73.9
			c0.1-1.3-0.1-2.7-0.6-4l0.6-7.5c0.3-3.5-1.5-7.2-4.4-9.7l26.7-68.9c4.1-10.5,2.6-22.3-3.9-31.7l-66.2-94.4
			c-5.7-8.1-14.7-13.5-24.7-14.9c-32.3-4.5-105.8-14.7-142.2-20c-8.7-1.3-17.5,0.6-24.9,5.2l-43.7,27.2l-31.3-0.2
			c-13.6-0.1-26,7.2-32.3,18.8c-9.8,18.3-23.7,46.1-31.2,61.3c-3.4,6.8-4.4,14.5-2.8,22c4.5,21.1,13.8,66.8,19.2,93.8
			c-4.7,2.1-7.9,7.1-7.5,11.7l0.6,7.4c-0.5,1.3-0.7,2.7-0.6,4.1l6,73.9c0.6,8,5.9,13.1,12.1,13.1c0.3,0,0.7,0,1,0l5.6-0.5
			c2.1-0.2,4-0.9,5.6-2.1c5.3,17.7,11.9,36.3,20,55.7c10.6,25.3,20.8,46,30.4,63.1c-0.9,13.3-1.9,26.6-3.1,39.9
			c-0.3,3.5-0.8,6.9-1.4,10.2c0,0.3,0.1,0.7,0.1,1c0,0.1,0,0.2,0,0.4c1.1,21.7,7,42.9,17.2,62.1C215.2,396.4,216,397.8,216.8,399.2z
			"/>
		<path fill="#FFFFFF" d="M117.9,395.6l-0.8,63.3c0,1.8,0.9,3.4,2.5,4.2c0.7,0.4,1.4,0.5,2.2,0.5c1,0,1.9-0.3,2.7-0.9l55.9-40.1v0v0
			c38.7,62.1,102.3,93.4,117,100c1.5,0.7,2.5,1.1,2.9,1.3l4.9,2l5-1.8c1.1-0.4,20.2-7.3,44.5-23c8.1-5.2,16.8-11.4,25.6-18.6
			c21.3-17.4,38.5-37.2,51.5-58.9l54.9,39.1c0.8,0.6,1.8,0.9,2.7,0.9c0.7,0,1.5-0.2,2.2-0.5c0.4-0.2,0.7-0.5,1-0.8
			c0.9-0.9,1.5-2.1,1.4-3.4l-0.8-63.3c0-1.5-0.1-3.1-0.3-4.6c-1.3-10.6-6.6-20.5-14.9-27.4l-39.3-32.8c-1.6-1.3-3.5-2-5.5-2h-0.5
			h-0.3c-2.2,0-4,1.7-4.2,3.9c-2.9,49.6-26.2,96-64.8,127.8c0,0,0,0,0,0c-7.5,6.2-15,11.6-22,16.2c-15.5,10.1-28.8,16.4-35.7,19.3
			c-13.9-6.6-54.1-28.1-85.8-66.2c-22.8-27.3-36-61.3-37.7-96.7c-0.1-2.5-2.2-4.4-4.6-4.4h-0.1c-2.1,0-4.1,0.7-5.6,2.1l-39,32.8
			C123.6,371.7,118.1,383.3,117.9,395.6z"/>
	</g>
</g>
</svg>
