<?xml version="1.0" encoding="utf-8"?>
<!-- Generator: Adobe Illustrator 18.1.1, SVG Export Plug-In . SVG Version: 6.00 Build 0)  -->
<svg version="1.1" id="Layer_1" xmlns="http://www.w3.org/2000/svg" xmlns:xlink="http://www.w3.org/1999/xlink" x="0px" y="0px"
	 viewBox="0 0 640 480" enable-background="new 0 0 640 480" xml:space="preserve">
<g>
	<circle fill="#58595B" cx="319.8" cy="240.3" r="299.1"/>
	<g>
		<path fill="#FFFFFF" d="M381.7,330.9c0,18.8,19.6,26.9,19.6,26.9s19.6-7,19.6-26.9V318h-39.3V330.9z"/>
		<path fill="#FFFFFF" d="M485.6,399.4c-1-43.5-5.4-102.7-8.3-111.1c-0.1-0.2-0.1-0.5-0.2-0.8c-1.3-6.1-5.2-24.6-36.1-36.7
			c-9.5-3.7-20.3-5.7-30.8-7.7c-4.5-0.8-9.1-1.7-13.6-2.7l-17.6-3.2l-10.4-2.2c0,26.8-21.8,48.7-48.7,48.7
			c-26.8,0-48.6-20.1-48.6-47l-10.4,1.3l0,0l-17.9,2.3c-4.5,1-9.1,1.8-13.6,2.7c-10.5,1.9-21.3,4-30.8,7.7
			c-20.5,8-32.7,20.4-36.1,36.7c-0.1,0.3-0.1,0.6-0.1,0.7c-2.9,8.5-7.3,67.8-8.3,111.2c-0.1,6.1-0.4,18.7,21.3,28.3
			c54.5,23.9,143.5,24.1,144.4,24.1c0.9,0,86-0.3,144.3-24.1l0.1-0.1C486,418.1,485.7,405.5,485.6,399.4z M165,399.7
			c1.1-49.1,5.9-102.5,7.7-108c0.2-0.6,0.3-1.2,0.5-2c1-4.6,4-18.8,29.4-28.7c8.5-3.3,18.4-5.2,28.8-7.1c3.7-0.7,7.4-1.4,11.2-2.2
			l19.3-2.8c0.3,1.8,0.8,3.6,1.3,5.3l-12.4,1.2c-4,0.9-8.2,1.6-12.2,2.4c-9.4,1.7-19.1,3.5-27.7,6.8c-18.4,7.1-29.4,18.1-32.4,32.5
			c-0.1,0.3-0.1,0.5-0.1,0.6c-2.3,6.6-5.7,48.1-8.1,114.2C164.8,407.5,164.9,403.3,165,399.7z M179.9,417.7
			c2.6-72.5,6.3-112.3,7.8-116.7c0.2-0.5,0.3-1.1,0.4-1.7c0.9-4.1,3.6-16.6,26.4-25.4c7.7-3,16.5-4.6,25.9-6.3
			c3.3-0.6,6.7-1.2,10.1-1.9l16.4-2.2c9.6,18.8,29.7,30.8,53.1,30.8c23.1,0,43.2-12.3,52.9-31l16.5,2.4c3.3,0.7,6.7,1.3,10,1.9
			c9.4,1.7,18.2,3.3,25.9,6.3c22.8,8.8,25.5,21.3,26.4,25.4c0.1,0.7,0.3,1.2,0.4,1.7c1.5,4.4,5.2,44.2,7.4,116.8
			c-56,22.6-138.7,23-139.5,23C318.9,440.8,231.9,440.4,179.9,417.7z M469,412.3c-2.1-66.2-5.5-107.8-7.7-114.4
			c0-0.2-0.1-0.4-0.2-0.7c-1.2-5.4-4.7-21.8-32.4-32.5c-8.5-3.3-18.3-5.1-27.7-6.8c-4-0.7-8.2-1.5-12.2-2.4l-12.1-2.3
			c0.5-1.8,0.9-3.6,1.3-5.4l19.1,4c3.7,0.8,7.5,1.5,11.1,2.1c10.4,1.9,20.3,3.8,28.8,7.1c25.4,9.9,28.4,24.1,29.4,28.7
			c0.2,0.8,0.3,1.4,0.5,2c1.9,5.5,6.6,58.9,7.7,108C474.7,403.3,474.7,407.7,469,412.3z"/>
		<path fill="#FFFFFF" d="M251.4,124.3c-2.1,0.7-3.6,2.8-3.4,4.8l2.3,29.9c0.3,3.2,2.3,5.3,4.7,5.3c0.1,0,0.3,0,0.4,0l2.2-0.2
			c0.8-0.1,1.6-0.4,2.2-0.8c2.1,7.2,4.6,14.7,7.8,22.5c4.2,10.3,8.2,18.8,11.9,25.7c-0.4,5.7-0.8,11.3-1.3,17c-0.2,2-1,5.1-1.6,7.3
			c-0.6,2-0.7,4-0.3,6.1c3.4,21,21.7,37.1,43.6,37.1c22,0,40.2-16.1,43.6-37.1c0.3-2,0.2-4.1-0.3-6.1c-0.6-2.1-1.4-5.2-1.6-7.3
			c-0.5-5.7-0.9-11.3-1.3-17c3.8-6.9,7.8-15.4,11.9-25.7c3.2-7.8,5.7-15.4,7.8-22.5c0.6,0.5,1.4,0.8,2.2,0.8l2.2,0.2
			c0.1,0,0.3,0,0.4,0c2.4,0,4.5-2.1,4.7-5.3l2.3-29.9c0.1-1.8-1.1-3.7-2.8-4.5L400.5,94c1.6-4.3,1-9-1.5-12.8L373.1,43
			c-2.2-3.3-5.7-5.5-9.6-6c-12.6-1.8-41.3-5.9-55.5-8.1c-3.4-0.5-6.8,0.2-9.7,2.1l-17,11l-12.2-0.1c-5.3,0-10.2,2.9-12.6,7.6
			c-3.8,7.4-9.2,18.6-12.2,24.8c-1.3,2.8-1.7,5.9-1.1,8.9C245.2,92.6,249.4,114.2,251.4,124.3z"/>
	</g>
</g>
</svg>
