<?xml version="1.0" encoding="utf-8"?>
<!-- Generator: Adobe Illustrator 18.1.1, SVG Export Plug-In . SVG Version: 6.00 Build 0)  -->
<svg version="1.1" id="Layer_1" xmlns="http://www.w3.org/2000/svg" xmlns:xlink="http://www.w3.org/1999/xlink" x="0px" y="0px"
	 viewBox="0 0 640 480" enable-background="new 0 0 640 480" xml:space="preserve">
<g>
	<circle fill="#58595B" cx="319.4" cy="240.3" r="299.1"/>
	<g>
		<path fill="#FFFFFF" d="M454.4,298c-0.9-4.2-3.7-17-27-26.1c-7.9-3-16.9-4.7-26.5-6.5c-0.8-0.1-1.6-0.3-2.4-0.5l0.1,9.9
			c0,2.9-1.5,5.5-4.1,6.9c-1.1,0.6-2.3,0.9-3.5,0.9c-1.6,0-3.1-0.5-4.4-1.4L370,269.5c-4.9,7-10.9,13.4-17.9,19.1
			c-14.5,11.9-28.4,16.9-29,17.1l-1.9,0.7l-2.1,0.8l-2.1-0.9l-1.9-0.8c-1.2-0.5-28-11.8-45.9-36.5l-16.8,12.1
			c-1.3,0.9-2.8,1.4-4.5,1.4c-1.2,0-2.4-0.3-3.5-0.9c-2.6-1.3-4.1-4-4.1-6.8l0.1-9.8c-0.8,0.1-1.6,0.3-2.4,0.4
			c-9.6,1.8-18.7,3.4-26.5,6.5c-23.4,9-26.1,21.9-27,26.1c-0.1,0.7-0.3,1.2-0.4,1.8c-1.5,4.4-5.1,56.2-7.8,127.7
			c55.4,22.8,142.9,23,143.2,23c0.3,0,83.8-0.2,142.8-23c-2.3-71.5-5.9-123.3-7.4-127.7C454.6,299.2,454.5,298.7,454.4,298z
			 M416.8,330.9c0,19.8-19.6,26.8-19.6,26.8s-19.6-8.1-19.6-26.8V318h39.1V330.9z"/>
		<path fill="#FFFFFF" d="M207.8,262.6c8.8-3.4,18.7-5.2,28.4-7c1.5-0.3,2.9-0.5,4.4-0.8l0.1-4.6c0-2.1,0.4-4.2,1-6.1
			c-15.6,3.4-31.5,5.2-44.8,10.4c-32.2,12.6-33,32.1-34,35c-2.5,7.2-7.2,65.9-8.3,112.8c-0.1,5.4,0,13,11.8,20.3
			c2.5-66.4,5.8-119.4,8.1-126c0-0.1,0.1-0.3,0.1-0.6C177.7,281.1,188.9,269.9,207.8,262.6z"/>
		<path fill="#FFFFFF" d="M484.3,402.3c-1.1-46.9-5.8-105.5-8.3-112.8c-1-2.9-1.8-22.4-34-35c-13.3-5.2-29.3-7-44.9-10.4
			c0.6,2,0.9,4.1,1,6.2l0.1,4.5c1.5,0.3,3,0.6,4.4,0.8c9.6,1.8,19.6,3.6,28.4,7c28.5,11,32.1,27.8,33.3,33.3
			c0.1,0.3,0.1,0.5,0.2,0.7c2.3,6.5,5.6,59.7,7.8,126.1C484.4,415.5,484.5,407.7,484.3,402.3z"/>
		<path fill="#FFFFFF" d="M251.4,123.3c-2.3,0.5-4,2.7-3.8,4.7l2.3,28.7c0.2,3.1,2.3,5.1,4.7,5.1c0.1,0,0.3,0,0.4,0l2.2-0.2
			c0.8-0.1,1.6-0.4,2.2-0.8c2.1,6.9,4.6,14.1,7.8,21.7c4.1,9.9,8.2,18.1,11.9,24.7c-0.4,5.5-0.8,10.9-1.3,16.4
			c-0.1,1.3-0.3,2.6-0.5,3.8c0,0.1,0,0.3,0,0.4c0.6,12,5.3,23.7,13.3,33c10.2,11.8,22.9,19.1,29,22.2c4.1-1.9,11.1-5.5,18.2-11.1
			l0.5-0.4c13.6-10.9,22-26.9,23.1-43.9c0-0.3,0.1-0.6,0.1-0.9c-0.2-1-0.3-2.1-0.4-3.2c-0.5-5.4-0.9-10.9-1.3-16.4
			c3.8-6.7,7.8-14.8,11.9-24.7c3.2-7.6,5.7-14.8,7.8-21.7c0.6,0.4,1.4,0.7,2.2,0.8l2.2,0.2c0.1,0,0.3,0,0.4,0c2.4,0,4.5-2,4.7-5.1
			l2.3-28.7c0.1-1.8-1.2-3.8-3.1-4.5l11.8-30.6c1.6-4.1,1-8.7-1.5-12.3l-25.8-36.7c-2.2-3.2-5.7-5.3-9.6-5.8
			c-12.5-1.7-41.1-5.7-55.3-7.8c-3.4-0.5-6.8,0.2-9.7,2l-17,10.6l-12.2-0.1c-5.3,0-10.1,2.8-12.5,7.3c-3.8,7.1-9.2,17.9-12.1,23.8
			c-1.3,2.7-1.7,5.6-1.1,8.5C245.1,91.9,249.6,114.3,251.4,123.3z"/>
		<path fill="#FFFFFF" d="M392.3,250.3c-0.1-4.8-2.2-9.4-5.9-12.4l-15.3-12.8c-0.6-0.5-1.4-0.8-2.2-0.8h-0.2c-0.9,0-1.7,0.7-1.7,1.6
			c-1.1,19.2-10.2,37.2-25.2,49.6c0,0,0,0,0,0c-9.3,7.7-18.5,12.1-22.4,13.8c-5.4-2.6-21-10.9-33.4-25.7
			c-8.9-10.6-14-23.8-14.7-37.6c0-1-0.8-1.7-1.8-1.7h0c-0.8,0-1.6,0.3-2.2,0.8l-15.2,12.8c-3.7,3.1-5.8,7.6-5.9,12.4l0,3.3
			l-0.1,10.2l-0.1,11c0,0.7,0.4,1.3,1,1.6c0.3,0.1,0.6,0.2,0.8,0.2c0.4,0,0.7-0.1,1.1-0.3l21.7-15.6v0c16.6,26.6,45,38.7,46.6,39.4
			l1.9,0.8l2-0.7c0.5-0.2,13.6-4.9,27.3-16.2c8.3-6.8,15-14.5,20-22.9l21.3,15.2c0.3,0.2,0.7,0.3,1.1,0.3c0.3,0,0.6-0.1,0.8-0.2
			c0.6-0.3,1-0.9,1-1.6l-0.1-11.1l-0.1-10.2L392.3,250.3z"/>
	</g>
</g>
</svg>
