<?xml version="1.0" encoding="utf-8"?>
<!-- Generator: Adobe Illustrator 18.1.1, SVG Export Plug-In . SVG Version: 6.00 Build 0)  -->
<svg version="1.1" id="Layer_1" xmlns="http://www.w3.org/2000/svg" xmlns:xlink="http://www.w3.org/1999/xlink" x="0px" y="0px"
	 viewBox="0 0 640 480" enable-background="new 0 0 640 480" xml:space="preserve">
<g>
	<circle fill="#58595B" cx="319.4" cy="240.2" r="299.1"/>
	<g>
		<path fill="#FFFFFF" d="M499.9,83H138.9c-16.8,0-30.5,13.7-30.5,30.5v198.5c0,16.8,13.7,30.5,30.5,30.5h69.4v75h222.3v-75h69.4
			c16.8,0,30.5-13.7,30.5-30.5V113.5C530.4,96.7,516.7,83,499.9,83z M506.7,312.1c0,3.7-3,6.7-6.7,6.7H138.9c-3.7,0-6.7-3-6.7-6.7
			V113.5c0-3.7,3-6.7,6.7-6.7h361.1c3.7,0,6.7,3,6.7,6.7V312.1z"/>
		<path fill="#FFFFFF" d="M143.6,307.3h351.6V118.3H143.6V307.3z M455,151.2c5.9,0,10.6,4.8,10.6,10.7c0,5.9-4.8,10.6-10.6,10.6
			c-5.9,0-10.6-4.8-10.6-10.6C444.4,156,449.2,151.2,455,151.2z M455,176.7c5.9,0,10.6,4.8,10.6,10.7c0,5.9-4.8,10.6-10.6,10.6
			c-5.9,0-10.6-4.8-10.6-10.6C444.4,181.5,449.2,176.7,455,176.7z M455,202.1c5.9,0,10.6,4.8,10.6,10.6c0,5.9-4.8,10.7-10.6,10.7
			c-5.9,0-10.6-4.8-10.6-10.7C444.4,206.9,449.2,202.1,455,202.1z M455,227.6c5.9,0,10.6,4.8,10.6,10.6c0,5.9-4.8,10.6-10.6,10.6
			c-5.9,0-10.6-4.8-10.6-10.6C444.4,232.4,449.2,227.6,455,227.6z M455,253c5.9,0,10.6,4.8,10.6,10.6c0,5.9-4.8,10.6-10.6,10.6
			c-5.9,0-10.6-4.8-10.6-10.6C444.4,257.8,449.2,253,455,253z M429.7,151.2c5.9,0,10.6,4.8,10.6,10.7c0,5.9-4.8,10.6-10.6,10.6
			c-5.9,0-10.6-4.8-10.6-10.6C419.1,156,423.8,151.2,429.7,151.2z M429.7,253c5.9,0,10.6,4.8,10.6,10.6c0,5.9-4.8,10.6-10.6,10.6
			c-5.9,0-10.6-4.8-10.6-10.6C419.1,257.8,423.8,253,429.7,253z M404.4,151.2c5.9,0,10.6,4.8,10.6,10.7c0,5.9-4.8,10.6-10.6,10.6
			c-5.9,0-10.7-4.8-10.7-10.6C393.7,156,398.5,151.2,404.4,151.2z M404.4,253c5.9,0,10.6,4.8,10.6,10.6c0,5.9-4.8,10.6-10.6,10.6
			c-5.9,0-10.7-4.8-10.7-10.6C393.7,257.8,398.5,253,404.4,253z M379.1,151.2c5.9,0,10.7,4.8,10.7,10.7c0,5.9-4.8,10.6-10.7,10.6
			c-5.9,0-10.6-4.8-10.6-10.6C368.4,156,373.2,151.2,379.1,151.2z M379.1,176.7c5.9,0,10.7,4.8,10.7,10.7c0,5.9-4.8,10.6-10.7,10.6
			c-5.9,0-10.6-4.8-10.6-10.6C368.4,181.5,373.2,176.7,379.1,176.7z M379.1,202.1c5.9,0,10.7,4.8,10.7,10.6
			c0,5.9-4.8,10.7-10.7,10.7c-5.9,0-10.6-4.8-10.6-10.7C368.4,206.9,373.2,202.1,379.1,202.1z M379.1,227.6
			c5.9,0,10.7,4.8,10.7,10.6c0,5.9-4.8,10.6-10.7,10.6c-5.9,0-10.6-4.8-10.6-10.6C368.4,232.4,373.2,227.6,379.1,227.6z M379.1,253
			c5.9,0,10.7,4.8,10.7,10.6c0,5.9-4.8,10.6-10.7,10.6c-5.9,0-10.6-4.8-10.6-10.6C368.4,257.8,373.2,253,379.1,253z M334.5,200.1
			c7,0,12.7,5.7,12.7,12.7c0,7-5.7,12.7-12.7,12.7c-7,0-12.7-5.7-12.7-12.7C321.8,205.8,327.5,200.1,334.5,200.1z M304.3,200.1
			c7,0,12.7,5.7,12.7,12.7c0,7-5.7,12.7-12.7,12.7c-7,0-12.7-5.7-12.7-12.7C291.6,205.8,297.3,200.1,304.3,200.1z M259.7,151.2
			c5.9,0,10.6,4.8,10.6,10.7c0,5.9-4.8,10.6-10.6,10.6c-5.9,0-10.7-4.8-10.7-10.6C249.1,156,253.8,151.2,259.7,151.2z M259.7,176.7
			c5.9,0,10.6,4.8,10.6,10.7c0,5.9-4.8,10.6-10.6,10.6c-5.9,0-10.7-4.8-10.7-10.6C249.1,181.5,253.8,176.7,259.7,176.7z
			 M259.7,202.1c5.9,0,10.6,4.8,10.6,10.6c0,5.9-4.8,10.7-10.6,10.7c-5.9,0-10.7-4.8-10.7-10.7C249.1,206.9,253.8,202.1,259.7,202.1
			z M259.7,253c5.9,0,10.6,4.8,10.6,10.6c0,5.9-4.8,10.6-10.6,10.6c-5.9,0-10.7-4.8-10.7-10.6C249.1,257.8,253.8,253,259.7,253z
			 M234.4,151.2c5.9,0,10.6,4.8,10.6,10.7c0,5.9-4.8,10.6-10.6,10.6c-5.9,0-10.7-4.8-10.7-10.6C223.7,156,228.5,151.2,234.4,151.2z
			 M234.4,202.1c5.9,0,10.6,4.8,10.6,10.6c0,5.9-4.8,10.7-10.6,10.7c-5.9,0-10.7-4.8-10.7-10.7C223.7,206.9,228.5,202.1,234.4,202.1
			z M234.4,253c5.9,0,10.6,4.8,10.6,10.6c0,5.9-4.8,10.6-10.6,10.6c-5.9,0-10.7-4.8-10.7-10.6C223.7,257.8,228.5,253,234.4,253z
			 M209.1,151.2c5.9,0,10.7,4.8,10.7,10.7c0,5.9-4.8,10.6-10.7,10.6c-5.9,0-10.6-4.8-10.6-10.6C198.4,156,203.2,151.2,209.1,151.2z
			 M209.1,202.1c5.9,0,10.7,4.8,10.7,10.6c0,5.9-4.8,10.7-10.7,10.7c-5.9,0-10.6-4.8-10.6-10.7C198.4,206.9,203.2,202.1,209.1,202.1
			z M209.1,253c5.9,0,10.7,4.8,10.7,10.6c0,5.9-4.8,10.6-10.7,10.6c-5.9,0-10.6-4.8-10.6-10.6C198.4,257.8,203.2,253,209.1,253z
			 M183.7,151.2c5.9,0,10.6,4.8,10.6,10.7c0,5.9-4.8,10.6-10.6,10.6c-5.9,0-10.6-4.8-10.6-10.6C173.1,156,177.9,151.2,183.7,151.2z
			 M183.7,202.1c5.9,0,10.6,4.8,10.6,10.6c0,5.9-4.8,10.7-10.6,10.7c-5.9,0-10.6-4.8-10.6-10.7C173.1,206.9,177.9,202.1,183.7,202.1
			z M183.7,227.6c5.9,0,10.6,4.8,10.6,10.6c0,5.9-4.8,10.6-10.6,10.6c-5.9,0-10.6-4.8-10.6-10.6
			C173.1,232.4,177.9,227.6,183.7,227.6z M183.7,253c5.9,0,10.6,4.8,10.6,10.6c0,5.9-4.8,10.6-10.6,10.6c-5.9,0-10.6-4.8-10.6-10.6
			C173.1,257.8,177.9,253,183.7,253z"/>
	</g>
</g>
</svg>
