<?xml version="1.0" encoding="utf-8"?>
<!-- Generator: Adobe Illustrator 18.1.1, SVG Export Plug-In . SVG Version: 6.00 Build 0)  -->
<svg version="1.1" id="Layer_1" xmlns="http://www.w3.org/2000/svg" xmlns:xlink="http://www.w3.org/1999/xlink" x="0px" y="0px"
	 viewBox="0 0 640 480" enable-background="new 0 0 640 480" xml:space="preserve">
<g>
	<circle fill="#58595B" cx="320.2" cy="240.7" r="299.1"/>
	<g>
		<path fill="#FFFFFF" d="M448.7,240.8c0-1.4,0-2.8,0-4.2h-36.3c0,1.4,0,2.8,0,4.2c0,1.3,0,2.6,0,3.9h36.3
			C448.7,243.5,448.7,242.2,448.7,240.8z"/>
		<path fill="#FFFFFF" d="M526.5,105.1H135.6c-10.1,0-18.2,8.2-18.2,18.2v234.8c0,10.1,8.2,18.2,18.2,18.2h390.9
			c10.1,0,18.2-8.2,18.2-18.2V123.3C544.7,113.3,536.5,105.1,526.5,105.1z M522.8,354.4H139.2V127h383.6V354.4z"/>
		<path fill="#FFFFFF" d="M248.1,210.2c0-6.2-1.7-11-5-14.3c-3.3-3.3-7.9-5-13.8-5c-5.8,0-10.4,1.7-13.8,5.2
			c-3.4,3.5-5.4,9.3-5.9,17.4l-27.7-2.8c1.6-15.3,6.8-26.3,15.5-32.9c8.7-6.7,19.6-10,32.6-10c14.3,0,25.5,3.9,33.7,11.6
			c8.2,7.7,12.3,17.3,12.3,28.8c0,6.5-1.2,12.7-3.5,18.6c-1.3,3.2-2.9,6.4-5,9.7h33c3.8,0,6.9-3.1,6.9-6.9v-83.5
			c0-3.8-3.1-6.9-6.9-6.9H158.8c-3.8,0-6.9,3.1-6.9,6.9v83.5c0,3.8,3.1,6.9,6.9,6.9h75.3c4-4.1,6.8-7.3,8.2-9.4
			C246.2,221.5,248.1,215.8,248.1,210.2z"/>
		<path fill="#FFFFFF" d="M158.8,341.9h141.7c3.8,0,6.9-3.1,6.9-6.9v-83.5c0-3.8-3.1-6.9-6.9-6.9h-38.6c-0.2,0.2-0.3,0.5-0.5,0.7
			c-3.4,4.3-9.4,10.4-18.2,18.5c-8.8,8-14.3,13.4-16.7,16c-2.3,2.6-4.2,5.2-5.7,7.7H276v25.8h-97.4c1.1-9.8,4.2-19,9.5-27.7
			c5.3-8.7,15.7-20.3,31.2-34.8c2.4-2.2,4.6-4.3,6.6-6.2h-67.1c-3.8,0-6.9,3.1-6.9,6.9v83.5C152,338.8,155.1,341.9,158.8,341.9z"/>
		<path fill="#FFFFFF" d="M430.5,165.8c30.9,0,46.8,23.6,47.7,70.8h25.1c3.8,0,6.9-3.1,6.9-6.9v-83.5c0-3.8-3.1-6.9-6.9-6.9H361.5
			c-3.8,0-6.9,3.1-6.9,6.9v83.5c0,3.8,3.1,6.9,6.9,6.9h21.3C383.7,189.5,399.5,165.8,430.5,165.8z"/>
		<path fill="#FFFFFF" d="M444.3,200.2c-2.9-7.4-7.5-11.1-13.8-11.1c-6.1,0-10.6,3.3-13.6,10c-2.8,6.2-4.3,18.8-4.5,37.6h36.3
			C448.5,219.2,447,207.1,444.3,200.2z"/>
		<path fill="#FFFFFF" d="M430.5,292.3c6.7,0,11.4-3.8,14.1-11.3c2.5-7,3.9-19.1,4.1-36.3h-36.3c0.2,19,1.7,31.5,4.7,37.7
			C420.1,289,424.6,292.3,430.5,292.3z"/>
		<path fill="#FFFFFF" d="M361.5,341.9h141.7c3.8,0,6.9-3.1,6.9-6.9v-83.5c0-3.8-3.1-6.9-6.9-6.9h-25.1
			c-0.8,47.2-16.7,70.8-47.7,70.8c-30.9,0-46.7-23.6-47.6-70.8h-21.3c-3.8,0-6.9,3.1-6.9,6.9v83.5
			C354.6,338.8,357.7,341.9,361.5,341.9z"/>
		<circle fill="#FFFFFF" cx="331" cy="201.7" r="12.5"/>
		<circle fill="#FFFFFF" cx="331" cy="279.7" r="12.5"/>
	</g>
</g>
</svg>
