<?xml version="1.0" encoding="utf-8"?>
<!-- Generator: Adobe Illustrator 18.1.1, SVG Export Plug-In . SVG Version: 6.00 Build 0)  -->
<svg version="1.1" id="Layer_1" xmlns="http://www.w3.org/2000/svg" xmlns:xlink="http://www.w3.org/1999/xlink" x="0px" y="0px"
	 viewBox="0 0 640 480" enable-background="new 0 0 640 480" xml:space="preserve">
<g>
	<circle fill="#58595B" cx="319.3" cy="240.6" r="299.1"/>
	<g>
		<path fill="#FFFFFF" d="M318.3,193.2c-68.8,0-124.5,55.7-124.5,124.5c0,68.8,55.7,124.5,124.5,124.5
			c68.8,0,124.5-55.7,124.5-124.5C442.9,248.9,387.1,193.2,318.3,193.2z M318.3,424.3c-58.8,0-106.6-47.8-106.6-106.6
			c0-58.8,47.8-106.6,106.6-106.6c58.8,0,106.6,47.8,106.6,106.6C424.9,376.4,377.1,424.3,318.3,424.3z"/>
		<path fill="#FFFFFF" d="M318.3,217.5c-55.3,0-100.2,45-100.2,100.2c0,55.3,45,100.2,100.2,100.2c55.3,0,100.2-45,100.2-100.2
			C418.6,262.4,373.6,217.5,318.3,217.5z M374.7,308.7l-23.7,23.1l5.6,32.6c1.2,6.9-2.9,9.8-9.1,6.6l-29.2-15.4l-29.2,15.4
			c-6.2,3.2-10.2,0.3-9.1-6.6l5.6-32.6l-23.7-23.1c-5-4.9-3.4-9.7,3.5-10.7l32.7-4.8l14.6-29.6c3.1-6.2,8.1-6.2,11.2,0l14.6,29.6
			l32.7,4.8C378.2,299,379.7,303.8,374.7,308.7z"/>
		<polygon fill="#FFFFFF" points="445.4,38.9 361.9,38.9 317.1,109.4 358.8,182.4 		"/>
		<polygon fill="#FFFFFF" points="348.8,182.5 266.8,38.9 193.3,38.9 275.4,182.5 		"/>
	</g>
</g>
</svg>
