<?xml version="1.0" encoding="utf-8"?>
<!-- Generator: Adobe Illustrator 18.1.1, SVG Export Plug-In . SVG Version: 6.00 Build 0)  -->
<svg version="1.1" id="Layer_1" xmlns="http://www.w3.org/2000/svg" xmlns:xlink="http://www.w3.org/1999/xlink" x="0px" y="0px"
	 viewBox="0 0 640 480" enable-background="new 0 0 640 480" xml:space="preserve">
<g>
	<circle fill="#58595B" cx="319.4" cy="240.7" r="299.1"/>
	<g>
		<path fill="#FFFFFF" d="M491.6,114.6l-21.7-21.7c-2.4-2.4-6-2.9-7.9-0.9l-31.8,31.9c-1.9,1.9-1.5,5.5,0.9,7.9l21.7,21.7
			c2.4,2.4,6,2.9,7.9,0.9l31.8-31.9C494.4,120.6,494,117,491.6,114.6z"/>
		<path fill="#FFFFFF" d="M285.5,111c-79.5,12.9-140.4,82-140.4,165.1c0,92.3,75.1,167.3,167.3,167.3s167.3-75.1,167.3-167.3
			c0-83.1-60.9-152.2-140.4-165.1V98.1v-5h18.4c4.1,0,7.4-3.3,7.4-7.4V45.3c0-4.1-3.3-7.4-7.4-7.4h-90.6c-4.1,0-7.4,3.3-7.4,7.4
			v40.5c0,4.1,3.3,7.4,7.4,7.4h18.4v5V111z M433.8,276.1c0,67.1-54.4,121.4-121.4,121.4v0c-67.1,0-121.4-54.4-121.4-121.4h121.4
			V154.7C379.5,154.7,433.8,209.1,433.8,276.1z"/>
	</g>
</g>
</svg>
