<?xml version="1.0" encoding="utf-8"?>
<!-- Generator: Adobe Illustrator 18.1.1, SVG Export Plug-In . SVG Version: 6.00 Build 0)  -->
<svg version="1.1" id="Layer_1" xmlns="http://www.w3.org/2000/svg" xmlns:xlink="http://www.w3.org/1999/xlink" x="0px" y="0px"
	 viewBox="0 0 640 480" enable-background="new 0 0 640 480" xml:space="preserve">
<g>
	<circle fill="#58595B" cx="319.8" cy="240.6" r="299.1"/>
	<g>
		<path fill="#FFFFFF" d="M402.8,75.3c1.3-3.5,2.8-6.9,4.7-10.1l0,0c0.5-0.8,0.5-1.8,0-2.5c-0.5-0.8-1.4-1.3-2.3-1.3
			c-51.9,0-118.8,0-170.7,0c-1,0-1.8,0.5-2.3,1.3c-0.5,0.8-0.5,1.8,0,2.5c0,0,0,0,0,0c1.9,3.3,3.5,6.7,4.9,10.2h-95.8v58.6l0.2,0.9
			c7,34.3,35.1,66.7,83.4,96.5c6.8,20.4,24,37.5,47,47.6c3.9,9,10.5,16.7,18.9,22.1l10.1,41.9c-21.2,6.2-37.6,22.6-43.2,43h-19.4
			c-8.5,0-16.9,6.5-18.6,14.4l-3.5,16.5c-0.4,1.7,0.8,3.1,2.7,3.1l202.1,0c1.8,0,3-1.4,2.7-3.1l-3.4-16.5
			c-1.6-7.9-9.9-14.4-18.5-14.4H382c-5.3-19.5-20.4-35.1-40.1-42l8.5-44c7.7-5.3,13.8-12.6,17.5-21c23-10.1,40.3-27.2,47-47.6
			c48.3-29.8,76.4-62.2,83.4-96.5l0.2-0.9V75.3H402.8z M278.2,156.2l25.7-3.7l11.5-23.3c2.4-4.9,6.4-4.9,8.8,0l11.5,23.3l25.7,3.7
			c5.4,0.8,6.6,4.6,2.7,8.4l-18.6,18.1l4.4,25.6c0.9,5.4-2.3,7.7-7.1,5.2l-23-12.1l-23,12.1c-4.8,2.5-8.1,0.2-7.1-5.2l4.4-25.6
			l-18.6-18.1C271.6,160.8,272.8,157,278.2,156.2z M161.9,131.9V95h59.3l-5.2,11.4l16.8,8.8l8.4-18.6c0,0.2,0,0.4,0,0.5l-0.4,8.9
			c-0.2,1.7-0.4,3.3-0.7,5c-8.2,43.1-15.4,80.3-17.7,94.8C194.5,186.6,168.3,161.3,161.9,131.9z M477.7,131.9
			c-6.5,29.3-32.6,54.6-60.4,73.9c-2.3-15-9.3-54.6-17.2-100c-0.5-2.8-0.7-5.7-0.8-8.5l7.5,17.4l16.8-8.8L418.9,95h58.8V131.9z"/>
	</g>
</g>
</svg>
